<?xml version="1.0" encoding="utf-8"?>
<!-- Generator: Adobe Illustrator 23.1.0, SVG Export Plug-In . SVG Version: 6.00 Build 0)  -->
<svg version="1.1" id="Layer_1" xmlns="http://www.w3.org/2000/svg" xmlns:xlink="http://www.w3.org/1999/xlink" x="0px" y="0px"
	 viewBox="0 0 600 200" style="enable-background:new 0 0 600 200;" xml:space="preserve">
<style type="text/css">
	.st0{opacity:0.21;fill:#C65EA4;}
	.st1{opacity:0.38;fill:#E44285;}
</style>
<path class="st0" d="M-966,923.2V131c75.2,0,90.2-53.2,165.4-53.2s90.2,106.5,165.4,106.5s90.2-106.5,165.4-106.5
	s90.2,106.5,165.4,106.5S-214,77.7-138.8,77.7s90.2,106.5,165.4,106.5S116.9,77.7,192.1,77.7s90.2,106.5,165.4,106.5
	S447.8,77.7,523,77.7s90.2,106.5,165.4,106.5S778.6,77.7,853.8,77.7s90.2,106.5,165.4,106.5c75.2,0,90.2-106.5,165.4-106.5
	s90.2,106.5,165.4,106.5s90.2-106.5,165.4-106.5l33.1,53.2v792.2H-966z"/>
<path class="st1" d="M-861.3,931.5V139.3c75.2,0,90.2-53.2,165.4-53.2s90.2,106.5,165.4,106.5S-440.2,86.1-365,86.1
	s90.2,106.5,165.4,106.5S-109.3,86.1-34.1,86.1s90.2,106.5,165.4,106.5S221.6,86.1,296.8,86.1S387,192.5,462.2,192.5
	S552.5,86.1,627.7,86.1s90.2,106.5,165.4,106.5S883.3,86.1,958.5,86.1s90.2,106.5,165.4,106.5s90.2-106.5,165.4-106.5
	s90.2,106.5,165.4,106.5s90.2-106.5,165.4-106.5l33.1,53.2v792.2H-861.3z"/>
<g>
</g>
<g>
</g>
<g>
</g>
<g>
</g>
<g>
</g>
<g>
</g>
</svg>
