<?xml version="1.0" encoding="iso-8859-1"?>
<!-- Generator: Adobe Illustrator 18.0.0, SVG Export Plug-In . SVG Version: 6.00 Build 0)  -->
<!DOCTYPE svg PUBLIC "-//W3C//DTD SVG 1.1//EN" "http://www.w3.org/Graphics/SVG/1.1/DTD/svg11.dtd">
<svg version="1.1" id="Capa_1" xmlns="http://www.w3.org/2000/svg" xmlns:xlink="http://www.w3.org/1999/xlink" x="0px" y="0px"
	 viewBox="0 0 478.855 478.855" style="enable-background:new 0 0 478.855 478.855;" xml:space="preserve">
<path d="M373.181,285.482l-54.489-16.24c0,0,0,0,0,0.006l-18.494-5.512c2.847-3.214,5.522-6.583,8.11-10.063l36.12,5.504
	c3.315,0.501,6.662-0.648,8.968-3.073c2.308-2.431,3.276-5.84,2.596-9.125l-7.827-37.886c4.864-5.365,8.952-12.051,11.627-19.737
	c3.762-10.776,4.426-22.02,1.876-31.654c-1.696-6.413-4.91-11.628-9.016-15.562c1.236-6.999,2.058-14.138,2.058-21.511
	C354.711,54.003,303.1,0,239.432,0c-63.676,0-115.286,54.003-115.286,120.628c0,7.373,0.821,14.504,2.049,21.497
	c-4.105,3.939-7.319,9.164-9.016,15.576c-2.549,9.634-1.884,20.878,1.869,31.654c2.674,7.671,6.756,14.357,11.643,19.713
	l-7.835,37.91c-0.681,3.285,0.289,6.694,2.596,9.125c2.307,2.425,5.653,3.575,8.969,3.073l36.12-5.504
	c2.58,3.48,5.254,6.849,8.101,10.063l-18.47,5.506l-54.488,16.24c-2.096,0.626-4.081,1.44-5.951,2.417
	c-0.672,0.352-1.243,0.836-1.884,1.227c-1.126,0.697-2.299,1.354-3.331,2.175c-9.673,7.702-14.568,20.496-11.667,33.25l8.125,35.798
	c15.748,69.313,77.367,118.507,148.449,118.507c0,0,0,0,0.008,0c71.082,0,132.7-49.194,148.442-118.507l8.132-35.806
	C399.869,307.543,389.891,290.463,373.181,285.482z M172.213,124.021l7.836-39.451l5.575,35.83
	c6.482-1.524,13.122-2.877,20.074-3.847l7.851-68.016l10.197,66.256c5.153-0.329,10.369-0.539,15.686-0.539
	c22.061,0,42.806,2.948,61.244,8.031l7.492-37.715l6.561,42.18c4.503,1.633,8.813,3.409,12.925,5.317
	c0.586,3.715,1.04,7.484,1.229,11.338c0.187,3.949,3.228,7.171,7.162,7.578c0.657,0.07,1.651,0.179,2.189,0.367
	c4.974,1.728,7.117,7.288,7.953,10.448c1.72,6.482,1.166,14.607-1.517,22.294c-4.989,14.341-15.201,22.082-22.474,22.082
	c0,0,0,0-0.008,0c-3.041-0.048-6.193,1.845-7.484,4.81c-14.528,33.318-41.944,68.922-75.28,68.922
	c-33.351,0-60.751-35.604-75.281-68.922c-1.274-2.926-4.487-4.81-7.671-4.81c-7.084,0-17.304-7.741-22.301-22.09
	c-2.674-7.679-3.23-15.804-1.509-22.286c0.837-3.16,2.98-8.72,7.976-10.456c0.508-0.18,1.501-0.289,2.158-0.359
	c3.934-0.407,6.983-3.629,7.171-7.578c0.18-3.854,0.641-7.617,1.227-11.331C157.716,129.048,164.731,126.344,172.213,124.021z
	 M239.44,344.935c-37.066,0-67.954-25.413-76.781-59.719l29.19-8.702c13.896,11.626,29.857,19.408,47.575,19.408
	c17.712,0,33.681-7.782,47.575-19.408l29.207,8.702C307.378,319.522,276.498,344.935,239.44,344.935z"/>
<g>
</g>
<g>
</g>
<g>
</g>
<g>
</g>
<g>
</g>
<g>
</g>
<g>
</g>
<g>
</g>
<g>
</g>
<g>
</g>
<g>
</g>
<g>
</g>
<g>
</g>
<g>
</g>
<g>
</g>
</svg>
