<?xml version="1.0" encoding="utf-8"?>
<!-- Generator: Adobe Illustrator 23.1.0, SVG Export Plug-In . SVG Version: 6.00 Build 0)  -->
<svg version="1.1" id="Layer_1" xmlns="http://www.w3.org/2000/svg" xmlns:xlink="http://www.w3.org/1999/xlink" x="0px" y="0px"
	 viewBox="0 0 86.2 23" style="enable-background:new 0 0 86.2 23;" xml:space="preserve">
<style type="text/css">
	.st0{fill:#FFFFFF;}
</style>
<g>
	<path class="st0" d="M7.8,7.7C7.2,7.2,6.5,7,5.7,7C5.1,7,4.6,7.1,4.1,7.3C3.6,7.5,3.2,7.7,2.8,8v9.8c-0.1,0.1-0.3,0.1-0.5,0.1
		c-0.2,0-0.5,0.1-0.7,0.1c-0.5,0-0.9-0.1-1.2-0.3c-0.3-0.2-0.4-0.5-0.4-1V0.2c0.1,0,0.3-0.1,0.5-0.1C0.8,0,1,0,1.3,0
		c0.5,0,0.9,0.1,1.2,0.3c0.2,0.2,0.4,0.5,0.4,1v4.3C3.2,5.4,3.7,5.2,4.3,5c0.6-0.2,1.2-0.3,1.9-0.3C7.7,4.7,9,5.2,9.9,6
		c1,0.8,1.5,2.1,1.5,3.8v8c-0.1,0.1-0.3,0.1-0.5,0.1c-0.2,0-0.5,0.1-0.7,0.1c-0.5,0-0.9-0.1-1.2-0.3c-0.2-0.2-0.4-0.5-0.4-1V9.9
		C8.6,8.9,8.3,8.2,7.8,7.7z"/>
	<path class="st0" d="M27.3,11.5c0,1-0.2,2-0.5,2.8c-0.3,0.8-0.7,1.5-1.3,2.1c-0.6,0.6-1.2,1-2,1.3c-0.8,0.3-1.7,0.5-2.7,0.5
		S19,18,18.2,17.7c-0.8-0.3-1.5-0.8-2-1.3c-0.6-0.6-1-1.3-1.3-2.1c-0.3-0.8-0.5-1.8-0.5-2.8c0-1,0.2-2,0.5-2.8
		c0.3-0.8,0.7-1.5,1.3-2.1c0.6-0.6,1.2-1,2-1.3c0.8-0.3,1.7-0.5,2.6-0.5s1.8,0.2,2.6,0.5c0.8,0.3,1.5,0.8,2,1.4
		c0.6,0.6,1,1.3,1.3,2.1C27.1,9.5,27.3,10.4,27.3,11.5z M20.9,7c-1.1,0-1.9,0.4-2.6,1.2s-0.9,1.9-0.9,3.3c0,1.4,0.3,2.5,0.9,3.3
		c0.6,0.8,1.5,1.2,2.6,1.2s2-0.4,2.6-1.2c0.6-0.8,0.9-1.9,0.9-3.3c0-1.4-0.3-2.5-0.9-3.3C22.8,7.4,22,7,20.9,7z"/>
	<path class="st0" d="M42.5,11.5c0,1-0.2,2-0.5,2.8c-0.3,0.8-0.7,1.5-1.3,2.1c-0.6,0.6-1.2,1-2,1.3c-0.8,0.3-1.7,0.5-2.7,0.5
		s-1.9-0.2-2.7-0.5c-0.8-0.3-1.5-0.8-2-1.3c-0.6-0.6-1-1.3-1.3-2.1c-0.3-0.8-0.5-1.8-0.5-2.8c0-1,0.2-2,0.5-2.8
		c0.3-0.8,0.7-1.5,1.3-2.1c0.6-0.6,1.2-1,2-1.3c0.8-0.3,1.7-0.5,2.6-0.5s1.8,0.2,2.6,0.5c0.8,0.3,1.5,0.8,2,1.4
		c0.6,0.6,1,1.3,1.3,2.1C42.4,9.5,42.5,10.4,42.5,11.5z M36.1,7c-1.1,0-1.9,0.4-2.6,1.2c-0.6,0.8-0.9,1.9-0.9,3.3
		c0,1.4,0.3,2.5,0.9,3.3c0.6,0.8,1.5,1.2,2.6,1.2s2-0.4,2.6-1.2c0.6-0.8,0.9-1.9,0.9-3.3c0-1.4-0.3-2.5-0.9-3.3
		C38.1,7.4,37.2,7,36.1,7z"/>
	<path class="st0" d="M47.9,17.9c-0.2,0-0.5,0.1-0.7,0.1c-0.5,0-0.9-0.1-1.2-0.3c-0.3-0.2-0.4-0.5-0.4-1V0.2c0.1,0,0.3-0.1,0.5-0.1
		C46.4,0,46.7,0,46.9,0c0.5,0,0.9,0.1,1.2,0.3c0.2,0.2,0.4,0.5,0.4,1v9.1L54,4.9c0.6,0,1,0.2,1.4,0.4c0.3,0.3,0.5,0.6,0.5,1
		c0,0.3-0.1,0.6-0.3,0.9c-0.2,0.3-0.5,0.6-0.9,0.9L51,11.2l5.6,5.1c-0.1,0.5-0.2,0.9-0.5,1.2C55.9,17.8,55.5,18,55,18
		c-0.4,0-0.7-0.1-1-0.3c-0.3-0.2-0.6-0.5-0.9-0.8l-4.7-5v5.8C48.3,17.8,48.2,17.9,47.9,17.9z"/>
	<path class="st0" d="M59,5.1c0.1,0,0.3-0.1,0.5-0.1C59.8,5,60,5,60.3,5c0.5,0,0.9,0.1,1.2,0.3c0.2,0.2,0.4,0.5,0.4,1V13
		c0,1,0.3,1.8,0.8,2.2c0.6,0.4,1.3,0.7,2.3,0.7c0.6,0,1.2-0.1,1.6-0.2s0.8-0.3,1-0.4V5.1c0.1,0,0.3-0.1,0.6-0.1S68.6,5,68.9,5
		c0.5,0,0.9,0.1,1.2,0.3c0.3,0.2,0.4,0.5,0.4,1v9.1c0,0.4-0.1,0.7-0.2,1c-0.1,0.3-0.4,0.5-0.8,0.7c-0.5,0.3-1.1,0.5-1.9,0.7
		c-0.8,0.2-1.7,0.3-2.7,0.3c-1.9,0-3.3-0.4-4.3-1.2c-1-0.8-1.6-2.1-1.6-3.9V5.1z"/>
	<path class="st0" d="M79.9,18.2c-0.6,0-1.1-0.1-1.6-0.2s-0.9-0.3-1.3-0.4v5.1c-0.1,0.1-0.3,0.1-0.5,0.1c-0.2,0-0.5,0.1-0.7,0.1
		c-0.5,0-0.9-0.1-1.2-0.3c-0.3-0.2-0.4-0.5-0.4-1v-14c0-0.4,0.1-0.7,0.2-1c0.1-0.2,0.4-0.5,0.8-0.7c0.5-0.3,1.1-0.5,1.9-0.8
		c0.7-0.2,1.6-0.3,2.5-0.3c0.9,0,1.8,0.1,2.6,0.4c0.8,0.3,1.5,0.7,2.1,1.2c0.6,0.5,1.1,1.2,1.4,2.1c0.3,0.8,0.5,1.8,0.5,3
		c0,1.1-0.2,2.1-0.5,3c-0.3,0.8-0.8,1.5-1.3,2.1c-0.6,0.6-1.2,1-2,1.3C81.7,18,80.8,18.2,79.9,18.2z M79.5,15.9
		c1.2,0,2.1-0.4,2.8-1.1c0.7-0.7,1-1.8,1-3.4c0-0.8-0.1-1.5-0.3-2c-0.2-0.6-0.5-1-0.8-1.4c-0.3-0.4-0.7-0.6-1.2-0.8
		C80.5,7.1,80,7,79.5,7c-0.6,0-1.1,0.1-1.5,0.2c-0.4,0.1-0.8,0.3-1.1,0.5v7.5c0.3,0.2,0.7,0.4,1.1,0.5
		C78.5,15.8,78.9,15.9,79.5,15.9z"/>
	<path class="st0" d="M36.5,6.2l2.9-5.9c0.1,0,0.3,0.1,0.5,0.2c0.2,0.1,0.5,0.2,0.7,0.3c0.5,0.2,0.8,0.5,1,0.7
		c0.2,0.2,0.2,0.5,0,0.7l-2.5,5.1"/>
	<path class="st0" d="M22.3,16.5l0,6.3c-0.1,0-0.3,0.1-0.5,0.1c-0.2,0-0.5,0.1-0.8,0.1c-0.5,0-0.9-0.1-1.2-0.2
		c-0.2-0.1-0.4-0.3-0.4-0.6l0-5.5"/>
</g>
</svg>
