<?xml version="1.0" encoding="utf-8"?>
<!-- Generator: Adobe Illustrator 23.1.0, SVG Export Plug-In . SVG Version: 6.00 Build 0)  -->
<svg version="1.1" id="Capa_1" xmlns="http://www.w3.org/2000/svg" xmlns:xlink="http://www.w3.org/1999/xlink" x="0px" y="0px"
	 viewBox="0 0 512 512" style="enable-background:new 0 0 512 512;" xml:space="preserve">
<style type="text/css">
	.st0{fill:#DA3D53;}
	.st1{fill:#FFFFFF;}
</style>
<circle class="st0" cx="252.8" cy="259.1" r="245.8"/>
<g>
	<path class="st1" d="M358.8,170.1c0-34.1-27.7-61.8-61.8-61.8c-16.8,0-32.6,6.8-44.2,18.6c-11.5-11.8-27.4-18.6-44.2-18.6
		c-34.1,0-61.8,27.7-61.8,61.8c0,31.1,23.1,56.9,53,61.2v81.3c0,6.8,2.6,13,6.8,17.7c-4.2,4.7-6.8,10.9-6.8,17.7v8.8
		c0,29.2,23.8,53,53,53c29.2,0,53-23.8,53-53V348c0-6.8-2.6-13-6.8-17.7c4.2-4.7,6.8-10.9,6.8-17.7v-81.3
		C335.8,227,358.8,201.2,358.8,170.1z M288.2,356.8c0,16.4-11.3,30.3-26.5,34.2v-16.5c0-4.9-4-8.8-8.8-8.8s-8.8,4-8.8,8.8V391
		c-15.2-3.9-26.5-17.8-26.5-34.2V348c0-4.9,4-8.8,8.8-8.8h53c4.9,0,8.8,4,8.8,8.8V356.8z M305.8,213.4v-25.6c0-4.9-4-8.8-8.8-8.8
		s-8.8,4-8.8,8.8v124.8c0,4.9-4,8.8-8.8,8.8h-53c-4.9,0-8.8-4-8.8-8.8V187.8c0-4.9-4-8.8-8.8-8.8c-4.9,0-8.8,4-8.8,8.8v25.6
		c-20.1-4.1-35.3-21.9-35.3-43.3c0-24.4,19.8-44.2,44.2-44.2c14.8,0,28.6,7.4,36.8,19.8c3.5,5.2,11.2,5.3,14.7,0
		c8.2-12.4,22-19.8,36.8-19.8c24.4,0,44.2,19.8,44.2,44.2C341.2,191.5,326,209.3,305.8,213.4z"/>
</g>
</svg>
