<?xml version="1.0" encoding="iso-8859-1"?>
<!-- Generator: Adobe Illustrator 18.0.0, SVG Export Plug-In . SVG Version: 6.00 Build 0)  -->
<!DOCTYPE svg PUBLIC "-//W3C//DTD SVG 1.1//EN" "http://www.w3.org/Graphics/SVG/1.1/DTD/svg11.dtd">
<svg version="1.1" id="Capa_1" xmlns="http://www.w3.org/2000/svg" xmlns:xlink="http://www.w3.org/1999/xlink" x="0px" y="0px"
	 viewBox="0 0 486.323 486.323" style="enable-background:new 0 0 486.323 486.323;" xml:space="preserve">
<g>
	<path d="M378.081,273.314L334.48,260.31l-15.467-4.614c-3.815,4.785-7.82,9.141-11.934,13.161l22.584,6.733
		c-12.668,28.088-46.324,48.278-86.188,48.278c-39.945,0-73.678-20.26-86.283-48.435l22.066-6.576
		c-4.129-4.02-8.116-8.384-11.949-13.161l-14.889,4.442l-44.181,13.175c-13.229,3.941-22.286,16.093-22.286,29.887v25.915
		c0,86.822,70.378,157.207,157.207,157.207c86.83,0,157.207-70.385,157.207-157.207v-25.915
		C400.368,289.407,391.314,277.255,378.081,273.314z"/>
	<path d="M344.535,128.003c1.15-7.404,1.474-16.58,1.55-23.546c6.451,3.441,14.639,3.144,14.639,3.144
		c-5.881-6.217-25.425-74.756-35.94-80.754c15.326-3.323,26.431-11.832,26.431-11.832c-15.978,0.888-43.87-6.162-49.98-7.769
		C292.24,2.715,282.21,0,271.547,0h-54.691c-22.944,0-43.665,11.53-55.207,29.84c-9.651,15.311-27.448,46.05-40.146,60.242
		c0,0,6.49-0.797,14.811-3.314c2.752-0.838,5.691-1.854,8.678-3.098c-3.006,17.846-3.688,37.488-3.455,44.443
		c-7.809,3.284-13.689,10.605-16.265,20.327c-2.455,9.331-1.814,20.208,1.814,30.616c5.724,16.436,17.905,28.517,31.169,31.224
		c0.079,0.18,0.188,0.367,0.283,0.548v5.122l0.155-0.079c0.124,5.035,1.439,10.627,5.021,16.476c0,0,21.534,32.976,49.467,55.832
		l-0.031-0.413c4.316,4.346,10.072,7.186,16.53,7.186h28.964c6.459,0,12.215-2.84,16.532-7.186l-0.032,0.413
		c27.932-22.856,49.469-55.832,49.469-55.832c3.58-5.849,4.895-11.441,5.019-16.476l0.157,0.079v-6.255
		c12.387-3.271,23.959-14.804,29.48-30.638C367.06,156.595,360.586,134.488,344.535,128.003z M344.146,173.794
		c-3.285,9.421-8.914,15.614-14.357,18.704v-20.588c0-2.487-2.018-4.505-4.504-4.505h-5.739c-1.956,0-3.676,1.252-4.286,3.105
		l-7.193,22.012l-3.301,10.275c-5.832,12.245-7.883,23.849-21.457,34.477l-5.207,4.074c-4.364,3.417-10.244,4.231-15.391,2.135
		c-5.129-2.095-8.756-6.787-9.492-12.301c-0.189-1.313-1.299-2.29-2.627-2.29h-12.855c-1.33,0-2.442,0.977-2.629,2.29
		c-0.734,5.506-4.363,10.198-9.508,12.293c-5.131,2.104-11.01,1.283-15.39-2.135l-5.176-4.05
		c-13.592-10.627-15.64-22.239-21.473-34.492l-3.301-10.275l-7.194-22.012c-0.609-1.853-2.33-3.105-4.285-3.105h-5.74
		c-2.486,0-4.502,2.018-4.502,4.505v21.722c-5.943-2.487-12.622-9.18-16.33-19.837c-2.549-7.337-3.08-15.084-1.453-21.263
		c0.797-2.979,2.799-8.219,7.459-9.837c0.502-0.173,1.486-0.274,1.972-0.322c3.956-0.383,7.037-3.611,7.224-7.585
		c0.174-3.7,0.616-7.268,1.503-10.768c11.936-47.11,52.986-50.476,52.986-50.476c-7.383,17.352-19.315,24.687-19.315,24.687
		c39.364-16.015,51.627-33.367,51.627-33.367c26.195,36.37,62.291,52.149,83.139,58.616c0.61,3.738,1.376,7.421,1.564,11.308
		c0.186,3.973,3.269,7.202,7.226,7.585c0.485,0.048,1.471,0.149,1.986,0.322C345.208,145.165,349.431,158.552,344.146,173.794z"/>
</g>
<g>
</g>
<g>
</g>
<g>
</g>
<g>
</g>
<g>
</g>
<g>
</g>
<g>
</g>
<g>
</g>
<g>
</g>
<g>
</g>
<g>
</g>
<g>
</g>
<g>
</g>
<g>
</g>
<g>
</g>
</svg>
