<?xml version="1.0" encoding="utf-8"?>
<!-- Generator: Adobe Illustrator 23.1.0, SVG Export Plug-In . SVG Version: 6.00 Build 0)  -->
<svg version="1.1" id="Layer_1" xmlns="http://www.w3.org/2000/svg" xmlns:xlink="http://www.w3.org/1999/xlink" x="0px" y="0px"
	 viewBox="0 0 480 480" style="enable-background:new 0 0 480 480;" xml:space="preserve">
<style type="text/css">
	.st0{fill:#FFFFFF;}
</style>
<path class="st0" d="M172.7,0L72,100.7V480h336V0H172.7z M168,27.3V96H99.3L168,27.3z M392,464H88V112h96V16h208V464z"/>
<path class="st0" d="M198.6,190.1L176,212.7l-22.6-22.6l-11.3,11.3l22.6,22.6l-22.6,22.6l11.3,11.3l22.6-22.6l22.6,22.6l11.3-11.3
	L187.3,224l22.6-22.6L198.6,190.1z"/>
<path class="st0" d="M273.4,257.9l22.6-22.6l22.6,22.6l11.3-11.3L307.3,224l22.6-22.6l-11.3-11.3L296,212.7l-22.6-22.6l-11.3,11.3
	l22.6,22.6l-22.6,22.6L273.4,257.9z"/>
<path class="st0" d="M170.3,330.3l11.3,11.3l7.4-7.4c28.1-28.1,73.7-28.1,101.8,0l7.4,7.4l11.3-11.3l-7.4-7.4
	c-34.4-34.3-90.1-34.3-124.4,0L170.3,330.3z"/>
</svg>
