<?xml version="1.0" encoding="utf-8"?>
<!-- Generator: Adobe Illustrator 23.1.0, SVG Export Plug-In . SVG Version: 6.00 Build 0)  -->
<svg version="1.1" id="Capa_1" xmlns="http://www.w3.org/2000/svg" xmlns:xlink="http://www.w3.org/1999/xlink" x="0px" y="0px"
	 viewBox="0 0 512 396.2" style="enable-background:new 0 0 512 396.2;" xml:space="preserve">
<style type="text/css">
	.st0{fill:#FFFFFF;}
</style>
<g>
	<g>
		<g>
			<path class="st0" d="M481,0H31C13.9,0,0,13.9,0,31v334.3c0,17.1,13.9,31,31,31H481c17.1,0,31-13.9,31-31V31
				C512,13.9,498.1,0,481,0z M484.9,369.1H27.1V27.1h457.7v331.9L484.9,369.1z"/>
		</g>
	</g>
	<g>
		<g>
			<path class="st0" d="M134.3,74.9c-39.9,0-72.4,32.5-72.4,72.4s32.5,72.4,72.4,72.4c39.9,0,72.4-32.5,72.4-72.4
				C206.8,107.4,174.3,74.9,134.3,74.9z M134.3,182.6c-19.5,0-35.3-15.8-35.3-35.3s15.8-35.3,35.3-35.3s35.3,15.8,35.3,35.3
				S153.8,182.6,134.3,182.6z"/>
		</g>
	</g>
	<g>
		<g>
			<path class="st0" d="M240.8,209c-7.2-4.5-16.6-3.5-22.7,2.4L59.5,364.3L85.3,391l148.1-142.8l66.9,41.8l19.7-31.5L240.8,209z"/>
		</g>
	</g>
	<g>
		<g>
			<path class="st0" d="M388.9,192.4c-7.5-6.8-19-6.4-25.9,0.9L198.3,366.1l26.9,25.6l152.2-159.6l103,93.7l25-27.5L388.9,192.4z"/>
		</g>
	</g>
</g>
</svg>
