<?xml version="1.0" encoding="utf-8"?>
<!-- Generator: Adobe Illustrator 23.1.0, SVG Export Plug-In . SVG Version: 6.00 Build 0)  -->
<svg version="1.1" id="Layer_1" xmlns="http://www.w3.org/2000/svg" xmlns:xlink="http://www.w3.org/1999/xlink" x="0px" y="0px"
	 viewBox="0 0 32 32" style="enable-background:new 0 0 32 32;" xml:space="preserve">
<style type="text/css">
	.st0{fill:#FFFFFF;fill-opacity:0;}
	.st1{fill:#FFFFFF;}
</style>
<g>
	<rect class="st0" width="32" height="32"/>
	<path class="st1" d="M16,14c2.8,0,5-3.2,5-6s-2.2-5-5-5s-5,2.2-5,5S13.2,14,16,14z M16,5c1.7,0,3,1.3,3,3c0,1.8-1.5,4-3,4
		s-3-2.2-3-4C13,6.3,14.3,5,16,5z M23.1,18.1c-3.9-3.9-10.2-4-14.1-0.1l-0.1,0.1c-1.2,1-2,2.5-2.1,4.1c0.1,1.6,0.8,3.1,2.1,4.1
		c3.8,3.9,10.1,4,14.1,0.2c0.1-0.1,0.1-0.1,0.2-0.2c1.2-1,2-2.5,2.1-4.1C25.1,20.6,24.3,19.1,23.1,18.1z M21.7,24.9
		c-3.1,3.2-8.2,3.2-11.3,0.1l-0.1-0.1c-0.8-0.7-1.4-1.6-1.5-2.7c0.1-1.1,0.6-2,1.5-2.7c3.1-3.2,8.2-3.2,11.3-0.1l0.1,0.1
		c0.8,0.7,1.4,1.6,1.5,2.7C23.1,23.3,22.5,24.2,21.7,24.9z"/>
</g>
</svg>
