<?xml version="1.0" encoding="iso-8859-1"?>
<!-- Generator: Adobe Illustrator 19.0.0, SVG Export Plug-In . SVG Version: 6.00 Build 0)  -->
<svg version="1.1" id="Layer_1" xmlns="http://www.w3.org/2000/svg" xmlns:xlink="http://www.w3.org/1999/xlink" x="0px" y="0px"
	 viewBox="0 0 496.2 496.2" style="enable-background:new 0 0 496.2 496.2;" xml:space="preserve">
<path style="fill:#EA4949;" d="M248.1,0C111.1,0,0,111.1,0,248.1s111.1,248.1,248.1,248.1s248.1-111.1,248.1-248.1S385.1,0,248.1,0z
	"/>
<polygon style="fill:#516E77;" points="247.9,317 208.3,322.3 210.2,335.4 247.8,363.5 286,335.4 287.9,322.3 "/>
<path style="fill:#2A3F49;" d="M418.5,382.8c-8.5-27.3-81.2-49.3-170.8-49.3s-161.5,22-170,49.3c-2.6,8.5-5.5,22.2-8.3,37.4
	c45.1,46.9,108.5,76,178.7,76s133.6-29.2,178.7-76C424.1,405,421.2,391.2,418.5,382.8z"/>
<path style="fill:#E2A379;" d="M287,282.1h-77.8c12.1,36.6,1,53.3,1,53.3l26.9,6.1h22l26.9-6.1C286,335.4,274.9,318.7,287,282.1z"/>
<g>
	<polygon style="fill:#5E7F8C;" points="287.9,322.3 260.1,335.7 260.1,360.8 304.2,336.5 	"/>
	<polygon style="fill:#5E7F8C;" points="208.3,322.3 192.1,336.4 236.1,360.8 236.1,335.7 	"/>
</g>
<g>
	<circle style="fill:#9B9B9A;" cx="299.2" cy="384" r="6"/>
	<circle style="fill:#9B9B9A;" cx="294.6" cy="430.2" r="6"/>
	<circle style="fill:#9B9B9A;" cx="290" cy="476.5" r="6"/>
	<circle style="fill:#9B9B9A;" cx="197" cy="384" r="6"/>
	<circle style="fill:#9B9B9A;" cx="201.6" cy="430.2" r="6"/>
	<circle style="fill:#9B9B9A;" cx="206.2" cy="476.5" r="6"/>
</g>
<path style="fill:#F4B382;" d="M248.1,61.6c-48.7,0-88.3,21.2-88.3,113.6c0,31.3,6.2,55.8,15.5,74.7c20.4,41.6,55.7,56.1,72.8,56.1
	s52.4-14.5,72.8-56.1c9.3-18.9,15.5-43.4,15.5-74.7C336.4,82.8,296.8,61.6,248.1,61.6z"/>
<g>
	<path style="fill:#DBDDDD;" d="M221.6,287.9v10.6c10.3,5.2,19.8,7.5,26.5,7.5c6.7,0,16.2-2.2,26.5-7.5v-10.6H221.6z"/>
	<path style="fill:#DBDDDD;" d="M292.1,250.7c0-6.5-19.2-14.2-40.4-15.1c-1,0-3.4,2.3-3.6,2.3c-0.2,0-2.5-2.4-3.4-2.3
		c-21.3,0.9-40.5,8.6-40.5,15.1c0,2-1.6,16.8,5.8,12.5c6.1-7.9,19.8-14,34.5-14.5c1.2,0,2.4,1,3.7,1c1.3,0,2.6-1,3.8-1
		c14.6,0.6,27.6,5.6,34.3,14.5C293.7,267.5,292.1,252.8,292.1,250.7z"/>
	<path style="fill:#DBDDDD;" d="M248.1,59.1c-58,0-88.3,23.7-88.3,116.1l39.8-33.1c0,0,26.5,0,48.5,0s46.2-35.3,46.2-35.3l42.1,68.4
		C336.4,82.8,306.1,59.1,248.1,59.1z"/>
	<path style="fill:#DBDDDD;" d="M180.1,138.6l-14.6,2.2c-4.2,10.9-5.6,24.4-5.6,37.5c0,0,8.8-1.9,8.8,2.6l2.8,27.6l3.9-1.9
		C175,183.6,180.1,138.6,180.1,138.6z"/>
	<path style="fill:#DBDDDD;" d="M330.8,140.8l-14.6-0.4c0,0,5.1,43.2,4.9,66.2l3.9,1.9l2.8-27.6c0-4.5,8.8-2.6,8.8-2.6
		C336.5,165.1,335.1,151.7,330.8,140.8z"/>
</g>
<path style="fill:#2F3035;" d="M248.3,43.4L248.3,43.4c-59.7,0-97.1,6.7-97.1,15.3s9.4,25.1,9.4,101.3h175.3
	c0-76.3,9.4-92.7,9.4-101.3S308,43.4,248.3,43.4z"/>
<path style="fill:#66676B;" d="M248.1,132.1c-46.5,0-80.9,5.1-87.7,6.1c0.2,6.7,0.3,14,0.3,21.9H336c0-7.9,0.1-15.1,0.3-21.8
	C330.2,137.3,295.3,132.1,248.1,132.1z"/>
<path style="fill:#2F3035;" d="M346.3,139.1c-3.8,0-13.7,9.9-23.7,11c0,0-54.8,1.5-74.4,1.5s-74.3-1.5-74.3-1.5
	c-10-1.1-19.9-11-23.7-11c-15,0,9.1,34,9.1,34h177.9C337.2,173.1,361.3,139.1,346.3,139.1z"/>
<path style="fill:#E5A173;" d="M259.5,254.8c-3.3-0.5-11.4,2.7-11.4,2.7s-8.3-3.1-11.6-2.7c-5.3,0.8-13.1,4.9-13.1,6.4
	c0,2.4,11,8.8,24.7,8.8s24.7-6.5,24.7-8.8C272.8,261.2,264.9,255.5,259.5,254.8z"/>
<path style="fill:#D89364;" d="M248.1,262.4c-14.6,0-24.7-1.2-24.7-1.2c0,2.4,11,11.5,24.7,11.5c13.7,0,24.7-9.1,24.7-11.5
	C272.8,261.2,262.7,262.4,248.1,262.4z"/>
<g>
	<path style="fill:#F4B382;" d="M161.4,178c-8.4,1.4-14.9,5.1-10.1,32.9s10.7,29.1,19.1,27.7L161.4,178z"/>
	<path style="fill:#F4B382;" d="M334.9,178l-9,60.6c8.4,1.4,14.3,0.1,19.1-27.7C349.7,183.1,343.3,179.5,334.9,178z"/>
</g>
<g>
</g>
<g>
</g>
<g>
</g>
<g>
</g>
<g>
</g>
<g>
</g>
<g>
</g>
<g>
</g>
<g>
</g>
<g>
</g>
<g>
</g>
<g>
</g>
<g>
</g>
<g>
</g>
<g>
</g>
</svg>
