<?xml version="1.0" encoding="iso-8859-1"?>
<!-- Generator: Adobe Illustrator 19.0.0, SVG Export Plug-In . SVG Version: 6.00 Build 0)  -->
<svg version="1.1" id="Layer_1" xmlns="http://www.w3.org/2000/svg" xmlns:xlink="http://www.w3.org/1999/xlink" x="0px" y="0px"
	 viewBox="0 0 496.3 496.3" style="enable-background:new 0 0 496.3 496.3;" xml:space="preserve">
<path style="fill:#48A1AF;" d="M248.15,0c-137,0-248.1,111.1-248.1,248.1s111.1,248.1,248.1,248.1s248.1-111.1,248.1-248.1
	S385.15,0,248.15,0z"/>
<g>
	<path style="fill:#1D1D1E;" d="M394.85,382.8c-7.3-27.3-69.9-49.3-147.1-49.3s-139.1,22.1-146.4,49.3c-3.3,12.2-7,35.2-10.1,57.5
		c42.7,34.9,97.4,55.9,156.9,55.9s114.1-21,156.9-55.9C401.85,417.9,398.15,394.9,394.85,382.8z"/>
	<path style="fill:#1D1D1E;" d="M95.15,414.9l44,3.7l7.5-70.1C78.45,332.8,95.15,414.9,95.15,414.9z"/>
	<path style="fill:#1D1D1E;" d="M349.65,348.5l7.5,70.1l44-3.7C401.15,414.9,417.85,332.8,349.65,348.5z"/>
	<path style="fill:#1D1D1E;" d="M394.85,382.8c-4.8-17.9-33.4-33.6-74.3-42.2l18,96.6l64.4-10.7
		C400.35,408.9,397.45,392.4,394.85,382.8z"/>
	<path style="fill:#1D1D1E;" d="M101.45,382.8c-2.6,9.7-5.5,26.2-8.1,43.7l63.4,10.5l18-96.3
		C134.25,349.3,106.15,364.9,101.45,382.8z"/>
</g>
<g>
	<path style="fill:#E2A379;" d="M404.45,436.5l-64,10.7l5.4,28.9c21.4-9.2,41.3-21.3,59.1-35.9
		C404.85,439,404.65,437.8,404.45,436.5z"/>
	<path style="fill:#E2A379;" d="M91.85,436.5c-0.2,1.3-0.4,2.5-0.5,3.8c17.6,14.4,37.1,26.3,58.2,35.5l5.4-28.7L91.85,436.5z"/>
</g>
<g>
	<path style="fill:#E6E7E8;" d="M93.35,426.5c-0.5,3.3-1,6.7-1.5,10.1l63,10.5l1.9-10.1L93.35,426.5z"/>
	<path style="fill:#E6E7E8;" d="M402.95,426.5l-64.3,10.6l1.9,10.1l64-10.7C403.95,433.2,403.45,429.8,402.95,426.5z"/>
</g>
<path style="fill:#1D1D1E;" d="M148.45,431.8v43.6c30.5,13.4,64.2,20.9,99.7,20.9s69.2-7.5,99.7-20.9v-43.6H148.45z"/>
<path style="fill:#E2A379;" d="M287.05,282.1h-77.8c12.1,36.6,1,53.3,1,53.3c0,61.7,37.9,128.7,37.9,128.7s37.9-66.8,37.9-128.7
	C286.05,335.4,274.95,318.7,287.05,282.1z"/>
<polygon style="fill:#CC936D;" points="248.15,418.9 242.65,448.6 253.65,448.6 "/>
<g>
	<path style="fill:#4C230C;" d="M167.75,136c-21.5,15-19.6,50.1-19.6,50.1c-30,54,29.2,88.7,29.2,88.7s32.1,17.3,70.8,17.3V147.6
		L167.75,136z"/>
	<path style="fill:#4C230C;" d="M348.35,186.1c-0.9-1.7,1.5-38.1-19.8-50.1l-80.2,11.6v144.5c38.7,0,70.8-17.3,70.8-17.3
		S376.55,241.1,348.35,186.1z"/>
</g>
<path style="fill:#F4B382;" d="M248.15,61.6c-44,0-79.8,21.2-79.8,113.6c0,31.3,5.6,55.8,14,74.7c18.4,41.6,50.3,56.1,65.8,56.1
	c15.4,0,47.3-14.5,65.8-56.1c8.4-18.9,14-43.4,14-74.7C327.95,82.8,292.15,61.6,248.15,61.6z"/>
<path style="fill:#4C230C;" d="M248.15,61.6c-57.3,0-82.7,25.1-82.7,117.5l9.5-7.9c45.8,0,32.9-26.9,61.2-52.3
	c0,42.8,94.7,60.1,94.7,60.1C330.85,86.7,305.45,61.6,248.15,61.6z"/>
<path style="fill:#E6E7E8;" d="M330.45,113.9c-3.8-8.5-11.7-13.8-19.8-14.2c-0.1-6.4-2.7-13.1-7.8-18.4c-6.6-6.7-15.5-9.4-23.4-7.8
	c-3.9-9.5-16.5-16.4-31.3-16.4c-14.8,0-27.4,6.9-31.2,16.4c-7.9-1.6-16.9,1.1-23.4,7.8c-5.2,5.3-7.8,11.9-7.8,18.4
	c-8.1,0.4-16,5.7-19.8,14.2c-3.4,7.6-2.6,15.9,1.2,22l-0.1,0.1c0,0,0,0,0.1,0c1.2-0.5,18.7-7.9,39.6-13.6
	c13.6-3.7,28.6-6.8,41.5-6.8c12.9,0,27.9,3,41.5,6.8c20.9,5.7,38.4,13.1,39.6,13.6h0.1l-0.1-0.1
	C333.15,129.8,333.85,121.5,330.45,113.9z"/>
<g>
	<path style="fill:#F4B382;" d="M169.85,178c-7.6,1.3-13.4,4.6-9.1,29.7c4.3,25.2,9.6,26.3,17.3,25L169.85,178z"/>
	<path style="fill:#F4B382;" d="M326.55,178l-8.1,54.8c7.6,1.3,13,0.1,17.3-25C339.95,182.6,334.15,179.3,326.55,178z"/>
</g>
<g>
	<path style="fill:#4C230C;" d="M174.85,183.1c-0.4-2.7-0.5-5.2-0.4-7.1c0.1-2.9,0.5-4.7,0.5-4.7l-9.4,3.5c0,1.4,0,2.9,0,4.3
		c0,0,0.9-0.3,2.5-0.9c1.3,2.2,2.9,5.6,4.5,10.5C172.45,188.8,176.15,191.5,174.85,183.1z"/>
	<path style="fill:#4C230C;" d="M330.75,174.8l-9.3-3.5c0,0,0.4,1.8,0.5,4.7c0.1,2,0,4.4-0.4,7.1c-1.3,8.4,2.3,5.7,2.3,5.7
		c1.5-5,3.2-8.3,4.4-10.5c1.6,0.6,2.5,0.8,2.5,0.8C330.85,177.6,330.85,176.2,330.75,174.8z"/>
</g>
<path style="fill:#CC785E;" d="M258.55,257.8c-3-0.4-10.4,2.5-10.4,2.5s-7.6-2.9-10.6-2.5c-4.8,0.7-16.1,4.6-16.1,6
	c0,0,14.2,9.6,26.7,9.6s26.7-9.6,26.7-9.6S263.45,258.5,258.55,257.8z"/>
<path style="fill:#C16952;" d="M254.25,264.4c-2-0.1-4.5,1.7-6.1,1.7c-1.9,0-4.8-1.8-7-1.6c-13.1,0.8-19.6-0.7-19.6-0.7
	s14.2,13.5,26.7,13.5s26.7-13.5,26.7-13.5S267.95,265.2,254.25,264.4z"/>
<g>
	<path style="fill:#E6E7E8;" d="M248.15,479.2v-30.6c0,0-17.2-28.1-22.3-44.2c-10.3-32.7-11.9-80.3-11.9-80.3s-17.4,7-25.5,18
		c-7.3,10-8.7,25-8.7,25l19.4,7.7l-8.8,17L248.15,479.2z"/>
	<path style="fill:#E6E7E8;" d="M316.35,367.1c0,0-1.3-15-8.7-25c-8.1-11-25.5-18-25.5-18s-1.5,47.7-11.9,80.3
		c-5.1,16.1-22.3,44.2-22.3,44.2v30.6l57.7-87.4l-8.8-17L316.35,367.1z"/>
</g>
<g>
</g>
<g>
</g>
<g>
</g>
<g>
</g>
<g>
</g>
<g>
</g>
<g>
</g>
<g>
</g>
<g>
</g>
<g>
</g>
<g>
</g>
<g>
</g>
<g>
</g>
<g>
</g>
<g>
</g>
</svg>
