<?xml version="1.0" encoding="iso-8859-1"?>
<!-- Generator: Adobe Illustrator 19.0.0, SVG Export Plug-In . SVG Version: 6.00 Build 0)  -->
<svg version="1.1" id="Layer_1" xmlns="http://www.w3.org/2000/svg" xmlns:xlink="http://www.w3.org/1999/xlink" x="0px" y="0px"
	 viewBox="0 0 496.2 496.2" style="enable-background:new 0 0 496.2 496.2;" xml:space="preserve">
<path style="fill:#4ABC96;" d="M248.1,0C111.1,0,0,111.1,0,248.1s111.1,248.1,248.1,248.1s248.1-111.1,248.1-248.1S385.1,0,248.1,0z
	"/>
<g>
	<path style="fill:#3A1D12;" d="M166.6,136.1c0,0-15.4,35.5-18.5,50c-11.4,54.2-1.8,181.7-1.8,181.7s63.1,1.8,101.8,1.8v-222
		L166.6,136.1z"/>
	<path style="fill:#3A1D12;" d="M347.4,186.1c-3.1-14.5-18.5-50-18.5-50l-81.5,11.5v222c38.7,0,101.8-1.8,101.8-1.8
		S358.9,240.3,347.4,186.1z"/>
</g>
<path style="fill:#334D5C;" d="M394.8,382.8c-7.3-27.3-69.9-49.3-147.1-49.3s-139.1,22.1-146.4,49.3c-3.3,12.2-7,35.2-10.1,57.5
	c42.7,34.9,97.4,55.9,156.9,55.9s114.1-21,156.9-55.9C401.8,417.9,398.1,394.9,394.8,382.8z"/>
<path style="fill:#AF9604;" d="M350.6,442.8v-2.6h-1.8V438h-3.9v2.2h-2.8V438h-4v2.2h-2.8V438h-3.9v2.2h-2.8V438h-3.9v2.2h-2.8V438
	H318v2.2h-1.6v2.6h1.6v9.8h-1.6v2.6h1.6v2h3.9v-2h2.8v2h3.9v-2h2.8v2h3.9v-2h2.8v2h3.9v-2h2.8v2h3.9v-2h1.8v-2.6h-1.8v-9.8H350.6z
	 M324.6,452.6h-2.8v-9.8h2.8V452.6z M331.4,452.6h-2.8v-9.8h2.8V452.6z M338.1,452.6h-2.8v-9.8h2.8V452.6z M344.9,452.6h-2.8v-9.8
	h2.8V452.6z"/>
<path style="fill:#A3D5E0;" d="M247.7,333.4c-89.6,0,0.4,162.8,0.4,162.8S337.3,333.4,247.7,333.4z"/>
<path style="fill:#E57428;" d="M267,419.5c-2-22.6-15.4-38.5-15.4-38.5h-3.5v0.7V381h-3.5c0,0-13.4,15.9-15.4,38.5
	c-0.3,2.9-0.5,6.3-0.8,10.1l19.7,60.4l0,0l19.8-60.5C267.6,425.8,267.3,422.4,267,419.5z"/>
<path style="fill:#932412;" d="M257.8,390.2l-24.2,10.5c-0.5,1.2-0.9,2.5-1.3,3.8l26.9-11.6C258.7,392,258.2,391.1,257.8,390.2z"/>
<path style="fill:#1E1D1D;" d="M263.6,403.2L229.4,418c-0.1,0.5-0.1,1-0.2,1.4c-0.1,0.6-0.1,1.3-0.2,2l35.4-15.3
	C264.2,405.1,263.9,404.2,263.6,403.2z"/>
<path style="fill:#932412;" d="M267,419.5c-0.1-0.7-0.1-1.4-0.2-2.1l-37.2,16.1l0.9,2.9l36.6-15.8
	C267.1,420.1,267.1,419.8,267,419.5z"/>
<polygon style="fill:#1E1D1D;" points="234,447 235,449.9 265.5,436.6 266.8,432.8 "/>
<polygon style="fill:#932412;" points="238.5,460.6 239.4,463.4 259.6,454.7 260.9,450.9 "/>
<polygon style="fill:#1E1D1D;" points="242.9,474.2 243.9,477 253.7,472.7 255,468.9 "/>
<polygon style="fill:#E57428;" points="248.1,360.5 232.3,368.4 248.1,394 263.8,368.4 "/>
<polygon style="fill:#1E1D1D;" points="234.2,371.4 236.8,375.7 254.9,382.9 256.5,380.3 "/>
<polygon style="fill:#932412;" points="243.2,363 239.6,364.8 260.9,373.2 262.4,370.6 "/>
<polygon style="fill:#C7C8C9;" points="247.9,317 208.3,322.3 210.2,335.4 247.8,363.5 286,335.4 287.9,322.3 "/>
<path style="fill:#D39266;" d="M287,282.1h-77.8c12.1,36.6,1,53.3,1,53.3s16.8,28.1,37.6,28.1s38.2-28.1,38.2-28.1
	S274.9,318.7,287,282.1z"/>
<g>
	<path style="fill:#E29C6D;" d="M248.1,61.6c-44,0-79.8,21.2-79.8,113.6c0,31.3,5.6,55.8,14,74.7c18.4,41.6,50.3,56.1,65.8,56.1
		s47.3-14.5,65.8-56.1c8.4-18.9,14-43.4,14-74.7C327.9,82.8,292.1,61.6,248.1,61.6z"/>
	<path style="fill:#E29C6D;" d="M169.8,178c-7.6,1.3-13.4,4.6-9.1,29.7c4.3,25.2,9.6,26.3,17.3,25L169.8,178z"/>
	<path style="fill:#E29C6D;" d="M326.5,178l-8.1,54.8c7.6,1.3,13,0.1,17.3-25C339.9,182.6,334.1,179.3,326.5,178z"/>
</g>
<path style="fill:#3A1D12;" d="M248.1,61.6c-57.3,0-82.7,25.1-82.7,117.5l9.5-7.9c45.8,0,84.9-1.8,113.2-27.1
	c0,42.8,42.7,35,42.7,35C330.8,86.7,305.4,61.6,248.1,61.6z"/>
<path style="fill:#CC785E;" d="M258.5,257.8c-3-0.4-10.4,2.5-10.4,2.5s-7.6-2.9-10.6-2.5c-4.8,0.7-16.1,4.6-16.1,6
	c0,0,14.2,9.6,26.7,9.6c12.5,0,26.7-9.6,26.7-9.6S263.4,258.5,258.5,257.8z"/>
<path style="fill:#C46E57;" d="M254.2,264.4c-2-0.1-4.5,1.7-6.1,1.7c-1.9,0-4.8-1.8-7-1.6c-13.1,0.8-19.6-0.7-19.6-0.7
	s14.2,13.5,26.7,13.5c12.5,0,26.7-13.5,26.7-13.5S267.9,265.2,254.2,264.4z"/>
<g>
	<path style="fill:#3A1D12;" d="M174.8,183.1c-0.4-2.7-0.5-5.2-0.4-7.1c0.1-2.9,0.5-4.7,0.5-4.7l-9.4,3.5c0,1.4,0,2.9,0,4.3
		c0,0,0.9-0.3,2.5-0.9c1.3,2.2,2.9,5.6,4.5,10.5C172.4,188.8,176.1,191.5,174.8,183.1z"/>
	<path style="fill:#3A1D12;" d="M330.7,174.8l-9.3-3.5c0,0,0.4,1.8,0.5,4.7c0.1,2,0,4.4-0.4,7.1c-1.3,8.4,2.3,5.7,2.3,5.7
		c1.5-5,3.2-8.3,4.4-10.5c1.6,0.6,2.5,0.8,2.5,0.8C330.8,177.6,330.8,176.2,330.7,174.8z"/>
</g>
<g>
	<polygon style="fill:#D4D6D8;" points="287.9,322.3 248.1,363.9 284.7,374.1 305.8,337.8 	"/>
	<polygon style="fill:#D4D6D8;" points="208.3,322.3 190.4,337.8 211.5,374.1 248.1,363.9 	"/>
</g>
<g>
	<path style="fill:#2A3F49;" d="M248.1,489.9l-50.4-154.1l-1.1-3.4l-12.5,5.2l-19.5,48.5l63.7,109.3c6.5,0.5,13.1,0.8,19.8,0.8
		V489.9z"/>
	<path style="fill:#2A3F49;" d="M311.5,337.4L311.5,337.4L311.5,337.4L311.5,337.4z"/>
	<path style="fill:#2A3F49;" d="M312.1,337.6l-0.6-0.2l0,0l0,0l-11.9-5l-1.1,3.5l-50.4,154v6.2c6.7,0,13.3-0.3,19.8-0.8l63.7-109.2
		L312.1,337.6z"/>
</g>
<path style="fill:#25383F;" d="M247.9,54.8c-60.8,0-89.4,24.3-89.4,24.3l3.8,36.6l1.2,9.1c0,0-0.2,14.5,13.9,14.5
	s31.6-10.5,70.6-10.5s56.3,10.5,70.6,10.5c14.4,0,14.2-14.9,14.2-14.9l0.9-8.7l3.8-36.6C337.7,79.1,308.8,54.8,247.9,54.8z"/>
<path style="fill:#3A5560;" d="M333.1,105.3c-15.2-6.4-46.2-16.8-85-16.8s-69.8,10.5-85,16.8l-1.6,1.9l0.9,8.5l0.9,6.4
	c15.9-6.5,46.7-16.5,84.9-16.5c38.4,0,69.2,10.1,85.1,16.6l0.7-6.5l0.9-8.5L333.1,105.3z"/>
<path style="fill:#0D1416;" d="M248.1,112.7c-38.4,0-69.1,6.7-84.5,13.1c0.2,3.2,1.9,17,13.9,17c14.1,0,31.6-10.5,70.6-10.5
	s56.3,10.5,70.6,10.5c11.6,0,13.7-13.2,14.1-16.9C317.6,119.5,286.7,112.7,248.1,112.7z"/>
<path style="fill:#25383F;" d="M248.1,109.2c-38.4,0-69.1,10.2-84.5,16.6c0.2,3.2,1.9,13.5,13.9,13.5c14.1,0,31.6-10.5,70.6-10.5
	s56.3,10.5,70.6,10.5c11.6,0,13.7-9.7,14.1-13.4C317.6,119.5,286.7,109.2,248.1,109.2z"/>
<g>
	<path style="fill:#932412;" d="M248.1,105.7c-38.2,0-69,10-84.9,16.5l0.4,2.7c0,0,0,0.3,0,0.9c15.4-6.4,46.1-16.6,84.5-16.6
		c38.6,0,69.5,10.3,84.8,16.7c0.1-0.9,0.1-1.5,0.1-1.5l0.2-2.2C317.3,115.7,286.5,105.7,248.1,105.7z"/>
	<path style="fill:#932412;" d="M335.2,102.4l-0.4-0.2C319.5,95.8,287.8,85,248,85s-71.4,10.8-86.8,17.2l-0.4,0.2l0,0l0.5,4.8
		l1.6-1.9c15.2-6.4,46.2-16.8,85-16.8s69.8,10.5,85,16.8l1.6,1.9L335.2,102.4L335.2,102.4z"/>
</g>
<path style="fill:#AF9604;" d="M265.3,65.8v-2.6h-1.8V61h-3.9v2.2h-2.8V61h-3.9v2.2h-2.8V61h-3.9v2.2h-2.8V61h-3.9v2.2h-2.8V61h-3.9
	v2.2h-1.6v2.6h1.6v9.8h-1.6v2.6h1.6v2h3.9v-2h2.8v2h3.9v-2h2.8v2h3.9v-2h2.8v2h3.9v-2h2.8v2h3.9v-2h1.8v-2.6h-1.8v-9.8H265.3z
	 M239.3,75.6h-2.8v-9.8h2.8V75.6z M246,75.6h-2.8v-9.8h2.8V75.6z M252.8,75.6H250v-9.8h2.8V75.6z M259.5,75.6h-2.8v-9.8h2.8V75.6z"
	/>
<g>
</g>
<g>
</g>
<g>
</g>
<g>
</g>
<g>
</g>
<g>
</g>
<g>
</g>
<g>
</g>
<g>
</g>
<g>
</g>
<g>
</g>
<g>
</g>
<g>
</g>
<g>
</g>
<g>
</g>
</svg>
