<?xml version="1.0" encoding="iso-8859-1"?>
<!-- Generator: Adobe Illustrator 19.0.0, SVG Export Plug-In . SVG Version: 6.00 Build 0)  -->
<svg version="1.1" id="Layer_1" xmlns="http://www.w3.org/2000/svg" xmlns:xlink="http://www.w3.org/1999/xlink" x="0px" y="0px"
	 viewBox="0 0 496.2 496.2" style="enable-background:new 0 0 496.2 496.2;" xml:space="preserve">
<path style="fill:#334D5C;" d="M248.1,0C111.1,0,0,111.1,0,248.1s111.1,248.1,248.1,248.1s248.1-111.1,248.1-248.1S385.1,0,248.1,0z
	"/>
<path style="fill:#48A1AF;" d="M394.8,382.8c-7.3-27.3-69.9-49.3-147.1-49.3s-139.1,22.1-146.4,49.3c-3.3,12.2-7,35.2-10.1,57.5
	c42.7,34.9,97.4,55.9,156.9,55.9s114.1-21,156.9-55.9C401.8,417.9,398.1,394.9,394.8,382.8z"/>
<path style="fill:#E8EAEA;" d="M299.6,330.8l-51.5-15.4l-51.5,15.3l-12.5,8c4.1-0.7,12.5,17.6,12.5,17.6h103c0,0,8.4-18.3,12.5-17.5
	v-0.1L299.6,330.8z"/>
<g>
	<path style="fill:#E2A379;" d="M286,335.3c-12.2-1.2-25-1.9-38.3-1.9c-13,0-25.6,0.8-37.6,2c0,0-21.6,58.2,37.9,58.2
		C307.6,393.6,286,335.3,286,335.3z"/>
	<path style="fill:#E2A379;" d="M287,282.1h-77.8c12.1,36.6,1,53.3,1,53.3s16.8,28.1,37.6,28.1s38.2-28.1,38.2-28.1
		S274.9,318.7,287,282.1z"/>
	<path style="fill:#E2A379;" d="M214,282.1h-4.8c2.6,7.9,4.2,14.9,4.9,20.9C215,297.9,215.3,290.9,214,282.1z"/>
	<path style="fill:#E2A379;" d="M282.2,282.1c-1.2,8.8-1,15.7-0.1,20.9c0.8-6.1,2.3-13,4.9-20.9H282.2z"/>
	<path style="fill:#E2A379;" d="M209.2,262.1c2.5,7.5,4,14.1,4.8,20h68.2c0.8-5.9,2.3-12.5,4.8-20H209.2z"/>
</g>
<g>
	<path style="fill:#F4B382;" d="M248.1,61.6c-44,0-79.8,21.2-79.8,113.6c0,31.3,5.6,55.8,14,74.7c18.4,41.6,50.3,56.1,65.8,56.1
		s47.3-14.5,65.8-56.1c8.4-18.9,14-43.4,14-74.7C327.9,82.8,292.1,61.6,248.1,61.6z"/>
	<path style="fill:#F4B382;" d="M169.8,178c-7.6,1.3-13.4,4.6-9.1,29.7c4.3,25.2,9.6,26.3,17.3,25L169.8,178z"/>
	<path style="fill:#F4B382;" d="M326.5,178l-8.1,54.8c7.6,1.3,13,0.1,17.3-25C339.9,182.6,334.1,179.3,326.5,178z"/>
</g>
<path style="fill:#F2DE7C;" d="M248.1,61.6c-57.3,0-82.7,25.1-82.7,117.5l9.5-7.9c45.8,0,84.9-26.9,113.2-52.3
	c12,33.1,42.7,60.1,42.7,60.1C330.8,86.7,305.4,61.6,248.1,61.6z"/>
<path style="fill:#CC785E;" d="M258.5,257.8c-3-0.4-10.4,2.5-10.4,2.5s-7.6-2.9-10.6-2.5c-4.8,0.7-16.1,4.6-16.1,6
	c0,0,14.2,9.6,26.7,9.6c12.5,0,26.7-9.6,26.7-9.6S263.4,258.5,258.5,257.8z"/>
<path style="fill:#C16952;" d="M254.2,264.4c-2-0.1-4.5,1.7-6.1,1.7c-1.9,0-4.8-1.8-7-1.6c-13.1,0.8-19.6-0.7-19.6-0.7
	s14.2,13.5,26.7,13.5c12.5,0,26.7-13.5,26.7-13.5S267.9,265.2,254.2,264.4z"/>
<g>
	<path style="fill:#F2DE7C;" d="M174.8,183.1c-0.4-2.7-0.5-5.2-0.4-7.1c0.1-2.9,0.5-4.7,0.5-4.7l-9.4,3.5c0,1.4,0,2.9,0,4.3
		c0,0,1-0.3,2.8-0.9c-0.1,0-0.2,0.1-0.3,0.1c1.3,2.2,2.9,5.6,4.5,10.5C172.4,188.8,176.1,191.5,174.8,183.1z"/>
	<path style="fill:#F2DE7C;" d="M330.7,174.8l-9.3-5.7c0,0,0.4,4,0.5,6.9c0.1,2,0,4.4-0.4,7.1c-1.3,8.4,2.3,5.7,2.3,5.7
		c1.5-5,3.2-8.3,4.4-10.5c1.6,0.6,2.5,0.8,2.5,0.8C330.8,177.6,330.8,176.2,330.7,174.8z"/>
</g>
<g>
	<circle style="fill:#AF9604;" cx="324.9" cy="226.6" r="2.5"/>
	<circle style="fill:#AF9604;" cx="171.3" cy="226.6" r="2.5"/>
</g>
<path style="fill:#E2A379;" d="M247.8,382.6c-24.7,0-37.5-20.5-37.5-20.5s15.4,103.4,30.2,133.9c2.5,0.1,5.1,0.1,7.7,0.1
	s5.1-0.1,7.7-0.1c14.6-30.6,30.2-133.9,30.2-133.9S272.5,382.6,247.8,382.6z"/>
<path style="fill:#318589;" d="M261.9,378.4c-16.6-14-9.5-52.3-16.3-51.7c-6.8,0.6-22.6,41.9-8.3,53.9
	c17.4,14.6,19.4,31.3,19.4,31.3S279.3,392.9,261.9,378.4z"/>
<g>
	<path style="fill:#F2F8F9;" d="M213.9,358.6l-3.7-23.2c-5.2,0.7-21.1,2.5-26,3.4l0,0h-0.1l-35,47.4l88,109.7
		c3.6,0.2,7.3,0.2,11,0.2v-31C248.1,465.2,214.1,358.8,213.9,358.6z"/>
	<path style="fill:#F2F8F9;" d="M312.1,338.9c-4.9-0.9-20.9-2.8-26.1-3.5l-3.7,23.2c-0.2,0.2-34.2,106.6-34.2,106.6v31l0,0
		c3.7,0,7.4-0.1,11-0.2l88-109.7L312.1,338.9z"/>
</g>
<path style="fill:#2C7A82;" d="M281.6,310.8c-6.3,8.2-19.2,19.1-33.8,19.1c-14.5,0-27-10.8-33.2-19c-5.2,6-2.5,18.7-2.5,18.7
	s15.1,20.2,35.8,20.2s36.3-20.2,36.3-20.2S286.8,317.8,281.6,310.8z"/>
<path style="fill:#2A7175;" d="M259.7,343.3c-1.9-10.7-2.7-20.7-14.1-18.7s-3.9,12-5.1,23c-1.1,9.8-1.8,14.2-8,20.9
	c-13.9,15.3,3.4,33.5,3.4,33.5s0.9-16.2,17.5-28.5C261.6,367.4,261.8,354.6,259.7,343.3z"/>
<polygon style="fill:#AF9604;" points="309.4,391.1 286.3,386.7 309.4,401.2 332.6,386.7 "/>
<path style="fill:#3A8589;" d="M264.8,36.8h-33.3c0,0-1.1,25.7,16.7,25.7S264.8,36.8,264.8,36.8z"/>
<path style="fill:#3F9199;" d="M264.8,36.8c0,0-11.7,23.3-16.7,23.3s-16.7-23.3-16.7-23.3l-33.1,27.3c0,0,32,24,49.8,24
	s49.8-24,49.8-24L264.8,36.8z"/>
<path style="fill:#48A1AF;" d="M297.9,64.1l-49.8,16.5l-49.8-16.5c0,0-17.3,2.7-17.3,28.1c0,0,60.6,24.9,67.1,24.9
	s67.1-24.9,67.1-24.9C315.2,65.6,297.9,64.1,297.9,64.1z"/>
<g>
</g>
<g>
</g>
<g>
</g>
<g>
</g>
<g>
</g>
<g>
</g>
<g>
</g>
<g>
</g>
<g>
</g>
<g>
</g>
<g>
</g>
<g>
</g>
<g>
</g>
<g>
</g>
<g>
</g>
</svg>
