<?xml version="1.0" encoding="iso-8859-1"?>
<!-- Generator: Adobe Illustrator 19.0.0, SVG Export Plug-In . SVG Version: 6.00 Build 0)  -->
<svg version="1.1" id="Layer_1" xmlns="http://www.w3.org/2000/svg" xmlns:xlink="http://www.w3.org/1999/xlink" x="0px" y="0px"
	 viewBox="0 0 496.2 496.2" style="enable-background:new 0 0 496.2 496.2;" xml:space="preserve">
<path style="fill:#334D5C;" d="M248.1,0C111.1,0,0,111.1,0,248.1s111.1,248.1,248.1,248.1s248.1-111.1,248.1-248.1S385.1,0,248.1,0z
	"/>
<polygon style="fill:#D1D1D1;" points="247.9,317 208.3,322.3 210.2,335.4 247.8,363.5 286,335.4 287.9,322.3 "/>
<path style="fill:#9B1818;" d="M394.8,382.8c-7.3-27.3-69.9-49.3-147.1-49.3s-139.1,22.1-146.4,49.3c-3.3,12.2-7,35.2-10.1,57.5
	c42.7,34.9,97.4,55.9,156.9,55.9s114.1-21,156.9-55.9C401.8,417.9,398.1,394.9,394.8,382.8z"/>
<path style="fill:#E5AA17;" d="M180.2,339.5c-2.2,0.4-4.4,0.9-6.6,1.4c-2.6,0.6-5.2,1.2-7.7,1.8c-1.7,0.4-3.3,0.9-5,1.3
	c-2.6,0.7-5.1,1.5-7.6,2.2c-1.6,0.5-3.2,1-4.8,1.6c-2.6,0.9-5,1.8-7.4,2.7c-1.6,0.6-3.1,1.3-4.6,1.9c-2.5,1.1-4.9,2.2-7.2,3.3
	c-2.1,1-4,2.1-5.9,3.2l5.1,13.8l56.3-20.7L180.2,339.5z"/>
<path style="fill:#282828;" d="M185.4,338.6c-23,4-42.7,10.2-57.4,17.8l3.3,9l56.3-20.7L185.4,338.6z"/>
<path style="fill:#E5AA17;" d="M366.8,355.8c-2.3-1.1-4.7-2.3-7.2-3.3c-1.5-0.6-3-1.3-4.6-1.9c-2.4-0.9-4.9-1.8-7.4-2.7
	c-1.6-0.5-3.2-1.1-4.8-1.6c-2.5-0.8-5-1.5-7.6-2.2c-1.6-0.4-3.3-0.9-5-1.3c-2.5-0.6-5.1-1.2-7.7-1.8c-2.2-0.5-4.3-0.9-6.6-1.4
	l-4.6,12.5l56.3,20.7l5-13.7C370.8,357.9,368.8,356.9,366.8,355.8z"/>
<path style="fill:#282828;" d="M310.5,338.6l-2.2,6.1l56.3,20.7l3.3-9C353.3,348.8,333.6,342.7,310.5,338.6z"/>
<path style="fill:#E2A379;" d="M287,282.1h-77.8c12.1,36.6,1,53.3,1,53.3l26.9,6.1h22l26.9-6.1C286,335.4,274.9,318.7,287,282.1z"/>
<path style="fill:#E6E7E8;" d="M304.2,336.5l-16.4-14.2l-39.7,19.2l-39.8-19.2l-16.2,14.1l-1.6,1.4c0,0,23.9,71.4,45.1,111.5
	c4.2,0.2,20.9,0.2,25.1,0c21.3-40.2,45.1-111.5,45.1-111.5L304.2,336.5z"/>
<path style="fill:#751414;" d="M245.2,447.1c-35.9-45.7-59.9-108.6-59.9-108.6c-54,6.1-5.8,95.2,50.5,120.5
	C244.3,462.7,250.4,453.6,245.2,447.1z"/>
<path style="fill:#9B1818;" d="M247.7,443.1c-34.5-45.4-57.3-105.3-57.3-105.3c-52.9,5.9-7.7,91.6,47.1,118.9
	C247,461.4,253.6,450.9,247.7,443.1z"/>
<path style="fill:#751414;" d="M310.4,338.9c0,0-31.4,82.3-76.1,127C299.5,462.7,372.6,345.9,310.4,338.9z"/>
<path style="fill:#9B1818;" d="M305.8,337.8c0,0-31.4,82.3-76.1,127C294.8,461.6,367.9,344.8,305.8,337.8z"/>
<g>
	<path style="fill:#751414;" d="M290.4,371.7c-5.5,11.1-11.4,22.1-17.7,32.7c-6.3,10.7-13,21.1-20.3,31.1c-7.3,10-15.2,19.5-24,28.1
		l-0.5,0.5v0.7l-0.3,30.5c1.3,0.1,2.6,0.2,4,0.3l-0.3-30.1c-0.2,0.2-0.3,0.3-0.5,0.5l0.5-1.2v0.6c8.6-8.8,16.2-18.5,23.2-28.5
		c7.1-10.2,13.6-20.9,19.7-31.7c6.1-10.9,11.7-21.9,17-33.2c5.2-11.3,10.2-22.6,14.6-34.2C301.1,349.3,295.9,360.6,290.4,371.7z"/>
	<path style="fill:#751414;" d="M231.3,464.9l-0.5,1.2c0.2-0.2,0.3-0.3,0.5-0.5V464.9z"/>
</g>
<g>
	<polygon style="fill:#9B1818;" points="210.6,327.7 210.6,361.9 241.7,351.1 241.7,338.4 	"/>
	<polygon style="fill:#9B1818;" points="254.5,338.4 254.5,351.1 285.6,361.9 285.6,327.7 	"/>
	<rect x="238.5" y="336.3" style="fill:#9B1818;" width="19.3" height="17.2"/>
</g>
<path style="fill:#F4B382;" d="M248.1,61.6c-44,0-79.8,21.2-79.8,113.6c0,31.3,5.6,55.8,14,74.7c18.4,41.6,50.3,56.1,65.8,56.1
	s47.3-14.5,65.8-56.1c8.4-18.9,14-43.4,14-74.7C327.9,82.8,292.1,61.6,248.1,61.6z"/>
<g>
	<path style="fill:#141414;" d="M165.3,179.6c0,0,82.7-45.9,82.7-79.5l0.1-38.5C199.4,61.6,165.3,87.2,165.3,179.6z"/>
	<path style="fill:#141414;" d="M248,61.6l0.1,38.5c0,33.6,82.7,79.5,82.7,79.5C330.8,87.2,296.8,61.6,248,61.6z"/>
</g>
<path style="fill:#CC785E;" d="M258.5,257.8c-3-0.4-10.4,2.5-10.4,2.5s-7.6-2.9-10.6-2.5c-4.8,0.7-11.9,9-11.9,10.3
	c0,0,10.1,5.2,22.5,5.2s22.5-5.2,22.5-5.2S263.4,258.5,258.5,257.8z"/>
<path style="fill:#C16952;" d="M254.2,264.4c-2-0.1-4.5,1.7-6.1,1.7c-1.9,0-4.8-1.8-7-1.6c-13.1,0.8-15.5,3.6-15.5,3.6
	s10.1,9.1,22.5,9.1s22.5-9.1,22.5-9.1S267.9,265.2,254.2,264.4z"/>
<g>
	<path style="fill:#F4B382;" d="M169.8,178c-7.6,1.3-13.4,4.6-9.1,29.7c4.3,25.2,9.6,26.3,17.3,25L169.8,178z"/>
	<path style="fill:#F4B382;" d="M326.5,178l-8.1,54.8c7.6,1.3,13,0.1,17.3-25C339.9,182.6,334.1,179.3,326.5,178z"/>
</g>
<g>
	<path style="fill:#141414;" d="M174.8,183.1c-0.4-2.7-0.5-5.2-0.4-7.1c0.1-2.9,0.5-4.7,0.5-4.7l-9.4,3.5c0,1.4,0,2.9,0,4.3
		c0,0,1-0.3,2.8-0.9c-0.1,0-0.2,0.1-0.3,0.1c1.3,2.2,2.9,5.6,4.5,10.5C172.4,188.8,176.1,191.5,174.8,183.1z"/>
	<path style="fill:#141414;" d="M330.7,174.8l-9.3-3.5c0,0,0.4,1.8,0.5,4.7c0.1,2,0,4.4-0.4,7.1c-1.3,8.4,2.3,5.7,2.3,5.7
		c1.5-5,3.2-8.3,4.4-10.5c1.6,0.6,2.5,0.8,2.5,0.8C330.8,177.6,330.8,176.2,330.7,174.8z"/>
</g>
<path style="fill:#9B1818;" d="M326.8,80.1c0-4-33.1-21.5-77.7-21.5c-45.1,0-79.3,17.5-79.3,21.5c0,8-3.8,71.6-3.8,71.6
	s28.1-19.3,82.1-19.3s82.4,19.3,82.4,19.3S326.8,88.1,326.8,80.1z"/>
<path style="fill:#E5AA17;" d="M328.4,114.5c-10-5.3-37.2-17.3-80.3-17.3s-70,11.9-80,17.2c-0.4,6.9-0.8,13.9-1.1,19.9
	c8.9-5,36.3-17.9,81.1-17.9s72.5,12.9,81.4,17.9C329.2,128.4,328.8,121.5,328.4,114.5z"/>
<g>
</g>
<g>
</g>
<g>
</g>
<g>
</g>
<g>
</g>
<g>
</g>
<g>
</g>
<g>
</g>
<g>
</g>
<g>
</g>
<g>
</g>
<g>
</g>
<g>
</g>
<g>
</g>
<g>
</g>
</svg>
