<?xml version="1.0" encoding="iso-8859-1"?>
<!-- Generator: Adobe Illustrator 19.0.0, SVG Export Plug-In . SVG Version: 6.00 Build 0)  -->
<svg version="1.1" id="Layer_1" xmlns="http://www.w3.org/2000/svg" xmlns:xlink="http://www.w3.org/1999/xlink" x="0px" y="0px"
	 viewBox="0 0 496.3 496.3" style="enable-background:new 0 0 496.3 496.3;" xml:space="preserve">
<path style="fill:#334D5C;" d="M248.15,0c-137,0-248.1,111.1-248.1,248.1s111.1,248.1,248.1,248.1s248.1-111.1,248.1-248.1
	S385.15,0,248.15,0z"/>
<path style="fill:#1D1D1E;" d="M305.85,337.8c-17.8-2.8-37.4-4.4-58-4.4c-20.4,0-39.8,1.5-57.4,4.3c-48.8,7.7-96,80.2-99.2,102.5
	c42.7,34.9,97.4,55.9,156.9,55.9s114.1-21,156.9-55.9C401.85,417.9,354.55,345.6,305.85,337.8z"/>
<polygon style="fill:#D4D6D8;" points="247.95,317 208.35,322.3 210.25,335.4 247.85,363.5 286.05,335.4 287.95,322.3 "/>
<path style="fill:#E2A379;" d="M287.05,282.1h-77.8c12.1,36.6,1,53.3,1,53.3l26.9,12.9h22l26.9-12.9
	C286.05,335.4,274.95,318.7,287.05,282.1z"/>
<path style="fill:#F4B382;" d="M248.15,61.6c-44,0-79.8,21.2-79.8,113.6c0,31.3,5.6,55.8,14,74.7c18.4,41.6,50.3,56.1,65.8,56.1
	s47.3-14.5,65.8-56.1c8.4-18.9,14-43.4,14-74.7C327.95,82.8,292.15,61.6,248.15,61.6z"/>
<ellipse style="fill:#F2DE7C;" cx="248.15" cy="66.1" rx="42" ry="28.7"/>
<path style="fill:#272728;" d="M248.15,57L248.15,57L248.15,57C248.05,57,248.05,57,248.15,57L248.15,57c-17.8,0-31.5,3.5-41.7,12.3
	c0.2,1.3,0.5,2.5,1,3.7c10.1-8.2,23.5-11.4,40.7-11.4l0,0h0.1l0,0c17.2,0,30.6,3.2,40.7,11.5c0.4-1.2,0.8-2.4,1-3.7
	C279.55,60.5,265.85,57,248.15,57z"/>
<g>
	<path style="fill:#F2DE7C;" d="M165.35,179.6c0,0,82.7-45.9,82.7-79.5l0.1-38.5C199.45,61.6,165.35,87.2,165.35,179.6z"/>
	<path style="fill:#F2DE7C;" d="M248.05,61.6l0.1,38.5c0,33.6,82.7,79.5,82.7,79.5C330.85,87.2,296.85,61.6,248.05,61.6z"/>
</g>
<path style="fill:#B74E39;" d="M258.55,257.8c-3-0.4-10.4,2.5-10.4,2.5s-7.6-2.9-10.6-2.5c-4.8,0.7-11.9,9-11.9,10.3
	c0,0,10.1,5.2,22.5,5.2c12.4,0,22.5-5.2,22.5-5.2S263.45,258.5,258.55,257.8z"/>
<path style="fill:#AA4035;" d="M254.25,264.4c-2-0.1-4.5,1.7-6.1,1.7c-1.9,0-4.8-1.8-7-1.6c-13.1,0.8-15.5,3.6-15.5,3.6
	s10.1,9.1,22.5,9.1c12.4,0,22.5-9.1,22.5-9.1S267.95,265.2,254.25,264.4z"/>
<path style="fill:#E2A379;" d="M247.95,317l-37.7,18.4c0,0,16.8,28.1,37.6,28.1c20.8,0,38.2-28.1,38.2-28.1L247.95,317z"/>
<path style="fill:#E6E7E8;" d="M304.25,336.5l-16.4-14.2l-39.7,19.2l-39.8-19.2l-16.2,14.1l-1.7,1.4c0,0,0.4,127.4,57.7,127.4
	s57.7-127.4,57.7-127.4L304.25,336.5z"/>
<polygon style="fill:#3C3C3F;" points="293.45,327.1 248.15,345.7 202.85,327.1 199.55,329.9 248.15,350.1 296.75,329.9 "/>
<g>
	<circle style="fill:#9B9B9A;" cx="248.15" cy="378.1" r="4.5"/>
	<circle style="fill:#9B9B9A;" cx="248.15" cy="409.1" r="4.5"/>
	<circle style="fill:#9B9B9A;" cx="248.15" cy="440.1" r="4.5"/>
</g>
<g>
	<polygon style="fill:#1D1D1E;" points="210.65,327.7 210.65,361.9 241.75,351.1 241.75,338.4 	"/>
	<polygon style="fill:#1D1D1E;" points="254.55,338.4 254.55,351.1 285.65,361.9 285.65,327.7 	"/>
	<rect x="238.55" y="336.3" style="fill:#1D1D1E;" width="19.3" height="17.2"/>
</g>
<g>
	<path style="fill:#F4B382;" d="M169.85,178c-7.6,1.3-13.4,4.6-9.1,29.7c4.3,25.2,9.6,26.3,17.3,25L169.85,178z"/>
	<path style="fill:#F4B382;" d="M326.55,178l-8.1,54.8c7.6,1.3,13,0.1,17.3-25C339.95,182.6,334.15,179.3,326.55,178z"/>
</g>
<g>
	<path style="fill:#F2DE7C;" d="M174.85,183.1c-0.4-2.7-0.5-5.2-0.4-7.1c0.1-2.9,0.5-4.7,0.5-4.7l-9.4,3.5c0,1.4,0,2.9,0,4.3
		c0,0,1-0.3,2.8-0.9c-0.1,0-0.2,0.1-0.3,0.1c1.3,2.2,2.9,5.6,4.5,10.5C172.45,188.8,176.15,191.5,174.85,183.1z"/>
	<path style="fill:#F2DE7C;" d="M330.75,174.8l-9.3-3.5c0,0,0.4,1.8,0.5,4.7c0.1,2,0,4.4-0.4,7.1c-1.3,8.4,2.3,5.7,2.3,5.7
		c1.5-5,3.2-8.3,4.4-10.5c1.6,0.6,2.5,0.8,2.5,0.8C330.85,177.6,330.85,176.2,330.75,174.8z"/>
</g>
<g>
	<path style="fill:#1D1D1E;" d="M190.45,337.8c-48.7,7.8-96,80.1-99.2,102.5c0,0,0,0,0,0.1c42.8,34.9,97.4,55.9,156.9,55.9
		c1.4,0,2.8,0,4.2-0.1h0.1v-31C211.55,424.2,190.45,337.8,190.45,337.8z"/>
	<path style="fill:#1D1D1E;" d="M305.85,337.8c0,0-21.5,86.5-62.4,127.3v31c1.6,0,3.2,0.1,4.8,0.1c59.5,0,114.1-21,156.9-55.9l0,0
		C401.85,417.9,354.55,345.6,305.85,337.8z"/>
</g>
<g>
	<path style="fill:#E6E7E8;" d="M394.85,382.8c-4.8-17.9-33.4-33.6-74.3-42.2l25.3,135.6c21.4-9.2,41.3-21.3,59.1-35.9
		C401.85,417.9,398.15,394.9,394.85,382.8z"/>
	<path style="fill:#E6E7E8;" d="M101.45,382.8c-3.3,12.2-7,35.2-10.1,57.5c17.6,14.4,37.1,26.3,58.2,35.5l25.2-135.1
		C134.25,349.3,106.15,364.9,101.45,382.8z"/>
</g>
<circle style="fill:#0F0F0F;" cx="253.35" cy="469.6" r="5.8"/>
<circle style="fill:#1D1D1E;" cx="253.35" cy="469.6" r="4.8"/>
<path style="fill:#0F0F0F;" d="M295.05,371.9c-4,11.2-8.5,22.3-13.5,33.1c-5,10.8-10.5,21.4-16.8,31.5s-13.4,19.7-21.9,28l-0.2,0.2
	v0.3l-0.2,30.9h2l-0.2-30.6c8.3-8.5,15.3-18.2,21.5-28.3c6.2-10.2,11.7-20.9,16.5-31.8c4.9-10.9,9.2-22,13.2-33.3
	c3.9-11.3,7.5-22.7,10.4-34.3C302.75,349.4,299.05,360.7,295.05,371.9z"/>
<g>
</g>
<g>
</g>
<g>
</g>
<g>
</g>
<g>
</g>
<g>
</g>
<g>
</g>
<g>
</g>
<g>
</g>
<g>
</g>
<g>
</g>
<g>
</g>
<g>
</g>
<g>
</g>
<g>
</g>
</svg>
