<?xml version="1.0" encoding="iso-8859-1"?>
<!-- Generator: Adobe Illustrator 19.0.0, SVG Export Plug-In . SVG Version: 6.00 Build 0)  -->
<svg version="1.1" id="Layer_1" xmlns="http://www.w3.org/2000/svg" xmlns:xlink="http://www.w3.org/1999/xlink" x="0px" y="0px"
	 viewBox="0 0 496.2 496.2" style="enable-background:new 0 0 496.2 496.2;" xml:space="preserve">
<path style="fill:#4ABC96;" d="M248.1,0C111.1,0,0,111.1,0,248.1s111.1,248.1,248.1,248.1s248.1-111.1,248.1-248.1S385.1,0,248.1,0z
	"/>
<path style="fill:#3A1D12;" d="M330.3,158.3L165.7,164l-6.6,192.8c0,0,23.4,23.5,89,23.5s89-23.5,89-23.5L330.3,158.3z"/>
<path style="fill:#1D1D1E;" d="M394.8,382.8c-7.3-27.3-69.9-49.3-147.1-49.3s-139.1,22.1-146.4,49.3c-3.3,12.2-7,35.2-10.1,57.5
	c42.7,34.9,97.4,55.9,156.9,55.9s114.1-21,156.9-55.9C401.8,417.9,398.1,394.9,394.8,382.8z"/>
<path style="fill:#D6E7F2;" d="M266.6,450.7v44.8c26.9-2,52.7-8.3,76.5-18.2v-26.6L266.6,450.7L266.6,450.7z"/>
<g>
	<rect x="266.6" y="449.9" style="fill:#556877;" width="76.5" height="6.2"/>
	<path style="fill:#556877;" d="M335.4,462.7h-31.2c-0.9,0-1.6,0.7-1.6,1.6s0.7,1.6,1.6,1.6h31.2c0.9,0,1.6-0.7,1.6-1.6
		C337,463.4,336.3,462.7,335.4,462.7z"/>
	<path style="fill:#556877;" d="M335.4,474.6h-31.2c-0.9,0-1.6,0.7-1.6,1.6s0.7,1.6,1.6,1.6h31.2c0.9,0,1.6-0.7,1.6-1.6
		S336.3,474.6,335.4,474.6z"/>
	<path style="fill:#556877;" d="M304.3,486.5c-0.9,0-1.6,0.7-1.6,1.6s0.7,1.6,1.6,1.6h0.6c4.1-1,8.2-2,12.2-3.2H304.3z"/>
	<rect x="272.5" y="461.1" style="fill:#556877;" width="23.4" height="29.7"/>
</g>
<polygon style="fill:#D4D6D8;" points="247.9,317 208.3,322.3 210.2,335.4 247.8,363.5 286,335.4 287.9,322.3 "/>
<path style="fill:#8C502F;" d="M287,282.1h-77.8c12.1,36.6,1,53.3,1,53.3l26.9,12.9h22l26.9-12.9C286,335.4,274.9,318.7,287,282.1z"
	/>
<path style="fill:#9B5C32;" d="M248.1,61.6c-44,0-79.8,21.2-79.8,113.6c0,31.3,5.6,55.8,14,74.7c18.4,41.6,50.3,56.1,65.8,56.1
	c15.4,0,47.3-14.5,65.8-56.1c8.4-18.9,14-43.4,14-74.7C327.9,82.8,292.1,61.6,248.1,61.6z"/>
<path style="fill:#844A2C;" d="M258.5,257.8c-3-0.4-10.4,2.5-10.4,2.5s-7.6-2.9-10.6-2.5c-4.8,0.7-11.9,9-11.9,10.3
	c0,0,10.1,5.2,22.5,5.2s22.5-5.2,22.5-5.2S263.4,258.5,258.5,257.8z"/>
<path style="fill:#7A4229;" d="M254.2,264.4c-2-0.1-4.5,1.7-6.1,1.7c-1.9,0-4.8-1.8-7-1.6c-13.1,0.8-15.5,3.6-15.5,3.6
	s10.1,9.1,22.5,9.1s22.5-9.1,22.5-9.1S267.9,265.2,254.2,264.4z"/>
<path style="fill:#8C502F;" d="M247.9,317l-37.7,18.4c0,0,16.8,28.1,37.6,28.1s38.2-28.1,38.2-28.1L247.9,317z"/>
<g>
	<path style="fill:#9B5C32;" d="M169.8,178c-7.6,1.3-13.4,4.6-9.1,29.7c4.3,25.2,9.6,26.3,17.3,25L169.8,178z"/>
	<path style="fill:#9B5C32;" d="M326.5,178l-8.1,54.8c7.6,1.3,13,0.1,17.3-25C339.9,182.6,334.1,179.3,326.5,178z"/>
</g>
<path style="fill:#3A1D12;" d="M316.8,95.1c-13-25.1-35.5-33.5-68.7-33.5c-53,0-79.2,22.1-82.2,96.7c-0.2,6.1-0.4,12.7-0.3,19.4
	c0,0,82.5-25.1,82.5-58.7c0,33.6,82.7,60.1,82.7,60.1C331.5,121.1,316.8,95.1,316.8,95.1z"/>
<path style="fill:#E5AA17;" d="M319.1,77.9c-12.6-18.6-47.2-34.8-70.8-34.8s-58.4,16.2-71,34.8c-11.8,17.3-14.8,66.7-10.5,66.7
	h162.7C332.4,144.6,330.9,95.3,319.1,77.9z"/>
<path style="fill:#EFC76C;" d="M165.1,138.6l0.8,19.7c0,0,35.4,3.6,82.2,3.6s82.1-3.6,82.1-3.6l0.2-19.7H165.1z"/>
<path style="fill:#E5AA17;" d="M248.1,39.9c-15.8,0-28.7,3.2-28.7,9.8v21.2c0,6.6,12.8,81.2,28.7,81.2c15.8,0,28.7-74.5,28.7-81.2
	V49.8C276.8,43.1,263.9,39.9,248.1,39.9z"/>
<g>
	<path style="fill:#C18D17;" d="M219.5,49.8C219.5,49.7,219.5,49.7,219.5,49.8c-0.1-0.1-0.2-0.1-0.2,0l0,0c-0.7,1.8-1.1,3.5-1.3,5.3
		c-0.2,0.9-0.2,1.8-0.3,2.6c-0.1,0.9-0.1,1.8-0.1,2.6c0,0.9,0,1.8,0.1,2.6c0.1,0.9,0.1,1.8,0.3,2.6c0.2,1.8,0.6,3.5,1.3,5.3l0,0
		c0,0,0,0.1,0.1,0.1s0.1,0,0.1-0.1l0.1-10.6L219.5,49.8z"/>
	<path style="fill:#C18D17;" d="M278.5,57.7c-0.1-0.9-0.1-1.8-0.3-2.6c-0.2-1.8-0.6-3.5-1.3-5.3l0,0c0,0,0-0.1-0.1-0.1
		s-0.1,0-0.1,0.1l-0.1,10.6l0.1,10.6c0,0,0,0.1,0.1,0.1c0,0,0.1,0,0.1-0.1l0,0c0.7-1.8,1.1-3.5,1.3-5.3c0.2-0.9,0.2-1.8,0.3-2.6
		c0.1-0.9,0.1-1.8,0.1-2.6C278.5,59.5,278.5,58.6,278.5,57.7z"/>
</g>
<path style="fill:#F4B21E;" d="M265.1,46.4c0-6.6-7.6-12-17-12s-17,5.4-17,12l-11.3,90.3c0,6.6,18.9,12,28.3,12
	c9.4,0,28.3-5.4,28.3-12L265.1,46.4z"/>
<path style="fill:#E5AA17;" d="M326.9,127.1c-11.7-0.5-45.4,7-78.8,7c-33,0-65.7-7.5-77.1-7c-11.3,0-15,22-15,22s39.7,4.1,92.2,4.1
	s92.1-4.1,92.1-4.1S336.7,127.1,326.9,127.1z"/>
<path style="fill:#C18D17;" d="M309.5,131.1c-6.9,0.4-13.7,0.8-20.6,1.1c-13.8,0.6-27.5,1-41.3,0.9c-13.8,0.1-27.5-0.4-41.3-1
	c-6.9-0.3-13.8-0.7-20.6-1.1c-6.9-0.4-13.7-0.9-20.6-1.4c6.8,1,13.7,1.7,20.5,2.4c6.9,0.6,13.7,1.2,20.6,1.7
	c13.8,0.9,27.6,1.3,41.3,1.4c13.8-0.1,27.6-0.5,41.3-1.4c6.9-0.5,13.8-1,20.6-1.7c6.9-0.7,13.7-1.4,20.5-2.4
	C323.2,130.1,316.4,130.7,309.5,131.1z"/>
<g>
	<path style="fill:#3A1D12;" d="M174.8,183.1c-0.4-2.7-0.5-5.2-0.4-7.1c0.1-2.9,0.5-4.7,0.5-4.7l-9.4,3.5c0,1.4,0,2.9,0,4.3
		c0,0,1-0.3,2.8-0.9c-0.1,0-0.2,0.1-0.3,0.1c1.3,2.2,2.9,5.6,4.5,10.5C172.4,188.8,176.1,191.5,174.8,183.1z"/>
	<path style="fill:#3A1D12;" d="M330.7,174.8l-9.3-3.5c0,0,0.4,1.8,0.5,4.7c0.1,2,0,4.4-0.4,7.1c-1.3,8.4,2.3,5.7,2.3,5.7
		c1.5-5,3.2-8.3,4.4-10.5c1.6,0.6,2.5,0.8,2.5,0.8C330.8,177.6,330.8,176.2,330.7,174.8z"/>
</g>
<path style="fill:#C7C8C9;" d="M248,348.3l-41.3-12.9c0,0,22.2,108,41.7,108s41.5-108,41.5-108L248,348.3z"/>
<path style="fill:#D4D6D8;" d="M248,348.3l-45.9-12.9c0,0,46.2,108,46.3,108L248,348.3z"/>
<g>
	<path style="fill:#F3FAFF;" d="M287.9,322.3l-39.8,26c0,0,34,10.4,34.2,10.3l23.5-20.8L287.9,322.3z"/>
	<path style="fill:#F3FAFF;" d="M208.3,322.3l-17.9,15.5l23.5,20.8c0.2,0.2,34.2-10.3,34.2-10.3L208.3,322.3z"/>
</g>
<g>
	<path style="fill:#4A4A54;" d="M248.1,458.5v-15.1c0,0-34-84.7-34.2-84.8l-17.3-26.2l-12.5,6.4l8,55.3l16.3-3.7l-12,14.7
		L248.1,458.5z"/>
	<path style="fill:#4A4A54;" d="M312.1,338.8l-12.5-6.4l-17.3,26.2c-0.2,0.2-34.2,84.8-34.2,84.8v15.1l51.7-53.4l-12-14.7l16.3,3.7
		L312.1,338.8z"/>
</g>
<g>
</g>
<g>
</g>
<g>
</g>
<g>
</g>
<g>
</g>
<g>
</g>
<g>
</g>
<g>
</g>
<g>
</g>
<g>
</g>
<g>
</g>
<g>
</g>
<g>
</g>
<g>
</g>
<g>
</g>
</svg>
