<?xml version="1.0" encoding="iso-8859-1"?>
<!-- Generator: Adobe Illustrator 19.0.0, SVG Export Plug-In . SVG Version: 6.00 Build 0)  -->
<svg version="1.1" id="Layer_1" xmlns="http://www.w3.org/2000/svg" xmlns:xlink="http://www.w3.org/1999/xlink" x="0px" y="0px"
	 viewBox="0 0 496.2 496.2" style="enable-background:new 0 0 496.2 496.2;" xml:space="preserve">
<path style="fill:#EA4949;" d="M248.1,0C111.1,0,0,111.1,0,248.1s111.1,248.1,248.1,248.1s248.1-111.1,248.1-248.1S385.1,0,248.1,0z
	"/>
<polygon style="fill:#516E77;" points="247.9,317 208.3,322.3 210.2,335.4 247.8,363.5 286,335.4 287.9,322.3 "/>
<path style="fill:#2A3F49;" d="M394.8,382.8c-7.3-27.3-69.9-49.3-147.1-49.3s-139.1,22.1-146.4,49.3c-3.3,12.2-7,35.2-10.1,57.5
	c42.7,34.9,97.4,55.9,156.9,55.9s114.1-21,156.9-55.9C401.8,417.9,398.1,394.9,394.8,382.8z"/>
<path style="fill:#E2A379;" d="M287,282.1h-77.8c12.1,36.6,1,53.3,1,53.3l26.9,6.1h22l26.9-6.1C286,335.4,274.9,318.7,287,282.1z"/>
<path style="fill:#141414;" d="M330.9,157.4H165.3l-6.2,96.9c0,0,23.4,23.5,89,23.5s89-23.5,89-23.5L330.9,157.4z"/>
<path style="fill:#F4B382;" d="M248.1,61.6c-44,0-79.8,21.2-79.8,113.6c0,31.3,5.6,55.8,14,74.7c18.4,41.6,50.3,56.1,65.8,56.1
	s47.3-14.5,65.8-56.1c8.4-18.9,14-43.4,14-74.7C327.9,82.8,292.1,61.6,248.1,61.6z"/>
<g>
	<path style="fill:#141414;" d="M165.3,179.6c0,0,82.7-45.9,82.7-79.5l0.1-38.5C199.4,61.6,165.3,87.2,165.3,179.6z"/>
	<path style="fill:#141414;" d="M248,61.6l0.1,38.5c0,33.6,82.7,79.5,82.7,79.5C330.8,87.2,296.8,61.6,248,61.6z"/>
</g>
<path style="fill:#B74E39;" d="M258.5,257.8c-3-0.4-10.4,2.5-10.4,2.5s-7.6-2.9-10.6-2.5c-4.8,0.7-11.9,9-11.9,10.3
	c0,0,10.1,5.2,22.5,5.2s22.5-5.2,22.5-5.2S263.4,258.5,258.5,257.8z"/>
<path style="fill:#AA4035;" d="M254.2,264.4c-2-0.1-4.5,1.7-6.1,1.7c-1.9,0-4.8-1.8-7-1.6c-13.1,0.8-15.5,3.6-15.5,3.6
	s10.1,9.1,22.5,9.1s22.5-9.1,22.5-9.1S267.9,265.2,254.2,264.4z"/>
<g>
	<polygon style="fill:#5E7F8C;" points="287.9,322.3 260.1,335.7 260.1,360.8 304.2,336.5 	"/>
	<polygon style="fill:#5E7F8C;" points="208.3,322.3 192.1,336.4 236.1,360.8 236.1,335.7 	"/>
</g>
<g>
	<path style="fill:#F4B382;" d="M169.8,178c-7.6,1.3-13.4,4.6-9.1,29.7c4.3,25.2,9.6,26.3,17.3,25L169.8,178z"/>
	<path style="fill:#F4B382;" d="M326.5,178l-8.1,54.8c7.6,1.3,13,0.1,17.3-25C339.9,182.6,334.1,179.3,326.5,178z"/>
</g>
<g>
	<path style="fill:#141414;" d="M174.8,183.1c-0.4-2.7-0.5-5.2-0.4-7.1c0.1-2.9,0.5-4.7,0.5-4.7l-9.4,3.5c0,1.4,0,2.9,0,4.3
		c0,0,1-0.3,2.8-0.9c-0.1,0-0.2,0.1-0.3,0.1c1.3,2.2,2.9,5.6,4.5,10.5C172.4,188.8,176.1,191.5,174.8,183.1z"/>
	<path style="fill:#141414;" d="M321.9,176c0.1,2,0,4.4-0.4,7.1c-1.3,8.4,2.3,5.7,2.3,5.7c1.5-5,3.2-8.3,4.4-10.5
		c1.6,0.6,2.5,0.8,2.5,0.8c0-1.5,0-2.9,0-4.3l-9.3-3.5C321.4,171.3,321.8,173.1,321.9,176"/>
</g>
<path style="fill:#2F3035;" d="M248.3,50.5L248.3,50.5c-55.2,0-89.8,6.2-89.8,14.2s8.7,23.2,8.7,93.7h162c0-70.5,8.7-85.7,8.7-93.7
	C338,56.7,303.5,50.5,248.3,50.5z"/>
<path style="fill:#66676B;" d="M248.1,132.5c-43,0-74.8,4.7-81.1,5.7c0.2,6.2,0.3,12.9,0.3,20.2h162c0-7.3,0.1-14,0.3-20.2
	C324,137.3,291.8,132.5,248.1,132.5z"/>
<path style="fill:#2F3035;" d="M338.9,138.9c-3.5,0-12.6,9.1-21.9,10.2c0,0-50.7,1.4-68.8,1.4s-68.7-1.4-68.7-1.4
	c-9.2-1-18.4-10.2-21.9-10.2c-13.9,0,8.4,31.4,8.4,31.4h164.5C330.5,170.4,352.8,138.9,338.9,138.9z"/>
<g>
	<circle style="fill:#9B9B9A;" cx="299.2" cy="384" r="6"/>
	<circle style="fill:#9B9B9A;" cx="294.6" cy="430.2" r="6"/>
	<circle style="fill:#9B9B9A;" cx="290" cy="476.5" r="6"/>
	<circle style="fill:#9B9B9A;" cx="197" cy="384" r="6"/>
	<circle style="fill:#9B9B9A;" cx="201.6" cy="430.2" r="6"/>
	<circle style="fill:#9B9B9A;" cx="206.2" cy="476.5" r="6"/>
</g>
<g>
</g>
<g>
</g>
<g>
</g>
<g>
</g>
<g>
</g>
<g>
</g>
<g>
</g>
<g>
</g>
<g>
</g>
<g>
</g>
<g>
</g>
<g>
</g>
<g>
</g>
<g>
</g>
<g>
</g>
</svg>
