<?xml version="1.0" encoding="iso-8859-1"?>
<!-- Generator: Adobe Illustrator 19.0.0, SVG Export Plug-In . SVG Version: 6.00 Build 0)  -->
<svg version="1.1" id="Layer_1" xmlns="http://www.w3.org/2000/svg" xmlns:xlink="http://www.w3.org/1999/xlink" x="0px" y="0px"
	 viewBox="0 0 496.2 496.2" style="enable-background:new 0 0 496.2 496.2;" xml:space="preserve">
<path style="fill:#4ABC96;" d="M248.1,0C111.1,0,0,111.1,0,248.1s111.1,248.1,248.1,248.1s248.1-111.1,248.1-248.1S385.1,0,248.1,0z
	"/>
<polygon style="fill:#C7C8C9;" points="247.9,317 208.3,322.3 210.2,335.4 247.8,363.5 286,335.4 287.9,322.3 "/>
<path style="fill:#334D5C;" d="M418.5,382.8c-8.5-27.3-81.2-49.3-170.8-49.3s-161.5,22-170,49.3c-2.6,8.5-5.5,22.2-8.3,37.4
	c45.1,46.9,108.5,76,178.7,76s133.6-29.2,178.7-76C424.1,405,421.2,391.2,418.5,382.8z"/>
<path style="fill:#A3D5E0;" d="M247.7,333.4c-89.6,0,0.4,162.8,0.4,162.8S337.3,333.4,247.7,333.4z"/>
<g>
	<polygon style="fill:#E57428;" points="248.1,360.5 232.3,368.4 248.1,394 263.8,368.4 	"/>
	<path style="fill:#E57428;" d="M267,419.5c-2-22.6-15.4-38.5-15.4-38.5h-3.5v0.7V381h-3.5c0,0-13.4,15.9-15.4,38.5
		c-0.3,2.9-0.5,6.3-0.8,10.1l19.7,60.4l0,0l19.8-60.5C267.6,425.8,267.3,422.4,267,419.5z"/>
</g>
<path style="fill:#932412;" d="M257.8,390.2l-24.2,10.5c-0.5,1.2-0.9,2.5-1.3,3.8l26.9-11.6C258.7,392,258.2,391.1,257.8,390.2z"/>
<path style="fill:#1E1D1D;" d="M263.6,403.2L229.4,418c-0.1,0.5-0.1,1-0.2,1.4c-0.1,0.6-0.1,1.3-0.2,2l35.4-15.3
	C264.2,405.1,263.9,404.2,263.6,403.2z"/>
<path style="fill:#932412;" d="M267,419.5c-0.1-0.7-0.1-1.4-0.2-2.1l-37.2,16.1l0.9,2.9l36.6-15.8
	C267.1,420.1,267.1,419.8,267,419.5z"/>
<polygon style="fill:#1E1D1D;" points="234,447 235,449.9 265.5,436.6 266.8,432.8 "/>
<polygon style="fill:#932412;" points="238.5,460.6 239.4,463.4 259.6,454.7 260.9,450.9 "/>
<g>
	<polygon style="fill:#1E1D1D;" points="242.9,474.2 243.9,477 253.7,472.7 255,468.9 	"/>
	<polygon style="fill:#1E1D1D;" points="234.2,371.4 236.8,375.7 254.9,382.9 256.5,380.3 	"/>
</g>
<polygon style="fill:#932412;" points="243.2,363 239.6,364.8 260.9,373.2 262.4,370.6 "/>
<g>
	<path style="fill:#E2A379;" d="M287,282.1h-77.8c12.1,36.6,1,53.3,1,53.3l26.9,6.1h22l26.9-6.1C286,335.4,274.9,318.7,287,282.1z"
		/>
	<path style="fill:#E2A379;" d="M247.9,317l-37.7,18.4c0,0,16.8,28.1,37.6,28.1s38.2-28.1,38.2-28.1L247.9,317z"/>
</g>
<path style="fill:#F4B382;" d="M336.3,178.3c0-1,0-2.1,0-3.1c0-92.4-39.5-113.6-88.3-113.6c-48.7,0-88.3,21.2-88.3,113.6
	c0,1.1,0,2.1,0,3.1c-7.7,1.7-13,6.5-8.6,32.6c4.8,27.8,10.7,29.1,19.1,27.7v-0.1c1.5,4,3.1,7.7,4.9,11.3
	c20.4,41.6,55.7,56.1,72.8,56.1s52.4-14.5,72.8-56.1c1.8-3.7,3.5-7.6,5.1-11.7l-0.1,0.5c8.4,1.4,14.3,0.1,19.1-27.7
	C349.5,184.7,344,180,336.3,178.3z"/>
<path style="fill:#E5A173;" d="M260.5,250c-3.5-0.5-12.4,2.9-12.4,2.9s-9-3.4-12.5-2.9c-5.7,0.8-14.1,5.3-14.1,6.9
	c0,2.6,11.9,9.5,26.7,9.5s26.7-7,26.7-9.5C274.8,257,266.2,250.9,260.5,250z"/>
<path style="fill:#D89364;" d="M248.1,258.3c-15.8,0-26.7-1.3-26.7-1.3c0,2.6,11.9,12.4,26.7,12.4c14.8,0,26.7-9.9,26.7-12.4
	C274.8,257,263.9,258.3,248.1,258.3z"/>
<g>
	<path style="fill:#30302E;" d="M248.1,59.1c-58,0-88.3,23.7-88.3,116.1l38.8-68.4c0,0,27.5,4.3,49.5,4.3s46.2-4.3,46.2-4.3
		l42.1,68.4C336.4,82.8,306.1,59.1,248.1,59.1z"/>
	<path style="fill:#30302E;" d="M180.1,138.6l-14.6,2.2c-4.2,10.9-5.6,24.4-5.6,37.5c0,0,8.8-1.9,8.8,2.6l2.8,27.6l3.9-1.9
		C175,183.6,180.1,138.6,180.1,138.6z"/>
	<path style="fill:#30302E;" d="M330.8,140.8l-14.6-0.4c0,0,5.1,43.2,4.9,66.2l3.9,1.9l2.8-27.6c0-4.5,8.8-2.6,8.8-2.6
		C336.5,165.1,335.1,151.7,330.8,140.8z"/>
</g>
<path style="fill:#25383F;" d="M247.9,54.8c-60.8,0-89.4,24.3-89.4,24.3l3.8,36.6l1.2,9.1c0,0-0.2,14.5,13.9,14.5
	s31.6-10.5,70.6-10.5s56.3,10.5,70.6,10.5c14.4,0,14.2-14.9,14.2-14.9l0.9-8.7l3.8-36.6C337.7,79.1,308.8,54.8,247.9,54.8z"/>
<path style="fill:#3A5560;" d="M333.1,105.3c-15.2-6.4-46.2-16.8-85-16.8s-69.8,10.5-85,16.8l-1.6,1.9l0.9,8.5l0.9,6.4
	c15.9-6.5,46.7-16.5,84.9-16.5c38.4,0,69.2,10.1,85.1,16.6l0.7-6.5l0.9-8.5L333.1,105.3z"/>
<path style="fill:#0D1416;" d="M248.1,112.7c-38.4,0-69.1,6.7-84.5,13.1c0.2,3.2,1.9,17,13.9,17c14.1,0,31.6-10.5,70.6-10.5
	s56.3,10.5,70.6,10.5c11.6,0,13.7-13.2,14.1-16.9C317.6,119.5,286.7,112.7,248.1,112.7z"/>
<path style="fill:#25383F;" d="M248.1,109.2c-38.4,0-69.1,10.2-84.5,16.6c0.2,3.2,1.9,13.5,13.9,13.5c14.1,0,31.6-10.5,70.6-10.5
	s56.3,10.5,70.6,10.5c11.6,0,13.7-9.7,14.1-13.4C317.6,119.5,286.7,109.2,248.1,109.2z"/>
<g>
	<path style="fill:#932412;" d="M248.1,105.7c-38.2,0-69,10-84.9,16.5l0.4,2.7c0,0,0,0.3,0,0.9c15.4-6.4,46.1-16.6,84.5-16.6
		c38.6,0,69.5,10.3,84.8,16.7c0.1-0.9,0.1-1.5,0.1-1.5l0.2-2.2C317.3,115.7,286.5,105.7,248.1,105.7z"/>
	<path style="fill:#932412;" d="M335.2,102.4l-0.4-0.2C319.5,95.8,287.8,85,248,85s-71.4,10.8-86.8,17.2l-0.4,0.2l0,0l0.5,4.8
		l1.6-1.9c15.2-6.4,46.2-16.8,85-16.8s69.8,10.5,85,16.8l1.6,1.9L335.2,102.4L335.2,102.4z"/>
</g>
<g>
	<polygon style="fill:#D4D6D8;" points="287.9,322.3 248.1,363.9 284.7,374.1 305.8,337.8 	"/>
	<polygon style="fill:#D4D6D8;" points="208.3,322.3 190.4,337.8 211.5,374.1 248.1,363.9 	"/>
</g>
<g>
	<path style="fill:#2A3F49;" d="M248.1,489.9l-50.4-154.1l-1.1-3.4l-12.5,5.2l-19.5,48.5l63.7,109.3c6.5,0.5,13.1,0.8,19.8,0.8
		V489.9z"/>
	<path style="fill:#2A3F49;" d="M311.5,337.4L311.5,337.4L311.5,337.4L311.5,337.4z"/>
	<path style="fill:#2A3F49;" d="M312.1,337.6l-0.6-0.2l0,0l0,0l-11.9-5l-1.1,3.5l-50.4,154v6.2c6.7,0,13.3-0.3,19.8-0.8l63.7-109.2
		L312.1,337.6z"/>
</g>
<path style="fill:#30302E;" d="M284.1,250.9c0-5.3-15.7-8.1-33.1-8.9c-0.8,0-2.8,1.9-2.9,1.9c-0.2,0-2-2-2.8-1.9
	c-17.4,0.8-33.2,3.6-33.2,8.9c0,1.7-1.3,13.7,4.8,10.2c5-6.5,16.2-11.4,28.2-11.9c1,0,2,0.8,3,0.8c1.1,0,2.1-0.8,3.1-0.8
	c12,0.5,22.6,4.6,28.1,11.9C285.4,264.7,284.1,252.6,284.1,250.9z"/>
<path style="fill:#AF9604;" d="M338.3,434.2h-11.9c-4.4,0-7.9,3.5-7.9,7.9V454c0,4.4,3.5,7.9,7.9,7.9h11.9c4.4,0,7.9-3.5,7.9-7.9
	v-11.9C346.2,437.8,342.7,434.2,338.3,434.2z"/>
<g>
	<circle style="fill:#334D5C;" cx="326.2" cy="455" r="1.9"/>
	<circle style="fill:#334D5C;" cx="338.6" cy="455" r="1.9"/>
	<path style="fill:#334D5C;" d="M339.4,441.6h-14c-1.4,0-2.6,1.2-2.6,2.6v3.2c0,1.4,1.2,2.6,2.6,2.6h14c1.4,0,2.6-1.2,2.6-2.6v-3.2
		C342,442.8,340.8,441.6,339.4,441.6z"/>
	<path style="fill:#334D5C;" d="M335.8,437h-6.9c-0.5,0-0.9,0.4-0.9,0.9v0.5c0,0.5,0.4,0.9,0.9,0.9h6.9c0.5,0,0.9-0.4,0.9-0.9v-0.5
		C336.7,437.4,336.3,437,335.8,437z"/>
</g>
<path style="fill:#AF9604;" d="M253.5,57.3h-10.7c-3.9,0-7.1,3.2-7.1,7.1v10.7c0,3.9,3.2,7.1,7.1,7.1h10.7c3.9,0,7.1-3.2,7.1-7.1
	V64.4C260.6,60.5,257.4,57.3,253.5,57.3z"/>
<g>
	<circle style="fill:#25383F;" cx="242.5" cy="76" r="1.7"/>
	<circle style="fill:#25383F;" cx="253.7" cy="76" r="1.7"/>
	<path style="fill:#25383F;" d="M254.4,63.9h-12.7c-1.3,0-2.4,1.1-2.4,2.4v2.9c0,1.3,1.1,2.4,2.4,2.4h12.7c1.3,0,2.4-1.1,2.4-2.4
		v-2.9C256.8,65,255.7,63.9,254.4,63.9z"/>
	<path style="fill:#25383F;" d="M251.2,59.8H245c-0.5,0-0.8,0.4-0.8,0.8V61c0,0.4,0.4,0.8,0.8,0.8h6.2c0.4,0,0.8-0.4,0.8-0.8v-0.4
		C252,60.1,251.6,59.8,251.2,59.8z"/>
</g>
<g>
</g>
<g>
</g>
<g>
</g>
<g>
</g>
<g>
</g>
<g>
</g>
<g>
</g>
<g>
</g>
<g>
</g>
<g>
</g>
<g>
</g>
<g>
</g>
<g>
</g>
<g>
</g>
<g>
</g>
</svg>
