<?xml version="1.0" encoding="iso-8859-1"?>
<!-- Generator: Adobe Illustrator 19.0.0, SVG Export Plug-In . SVG Version: 6.00 Build 0)  -->
<svg version="1.1" id="Layer_1" xmlns="http://www.w3.org/2000/svg" xmlns:xlink="http://www.w3.org/1999/xlink" x="0px" y="0px"
	 viewBox="0 0 496.2 496.2" style="enable-background:new 0 0 496.2 496.2;" xml:space="preserve">
<path style="fill:#48A1AF;" d="M248.1,0C111.1,0,0,111.1,0,248.1s111.1,248.1,248.1,248.1s248.1-111.1,248.1-248.1S385.1,0,248.1,0z
	"/>
<polygon style="fill:#D4D6D8;" points="247.9,317 208.3,322.3 210.2,335.4 247.8,363.5 286,335.4 287.9,322.3 "/>
<g>
	<path style="fill:#E6E7E8;" d="M418.5,382.8c-8.5-27.3-81.2-49.3-170.8-49.3s-161.5,22-170,49.3c-2.6,8.5-5.5,22.2-8.3,37.4
		c45.1,46.9,108.5,76,178.7,76s133.6-29.2,178.7-76C424.1,405,421.2,391.2,418.5,382.8z"/>
	<path style="fill:#E6E7E8;" d="M304.2,336.5l-16.4-14.2l-39.7,19.2l-39.8-19.2l-16.2,14.1l-1.6,1.4c0,0,23.9,117.9,45.1,158
		c4.2,0.2,8.3,0.3,12.6,0.3c4.2,0,8.4-0.1,12.5-0.3c21.3-40.2,45.1-158,45.1-158L304.2,336.5z"/>
</g>
<path style="fill:#30302E;" d="M360.5,394.1h-4.4l-11.3-51c-7.5-1.7-15.5-3.1-23.8-4.4v55.4H174.7v-55.4c-8.3,1.3-16.3,2.8-23.8,4.4
	l-11.3,51h-3.9c-3.8,0-6.9,3.1-6.9,6.9v64.7c35.4,19.5,76,30.5,119.3,30.5c43.2,0,83.9-11.1,119.3-30.5V401
	C367.4,397.2,364.3,394.1,360.5,394.1z"/>
<circle style="fill:#348264;" cx="158.3" cy="393.1" r="7.5"/>
<g>
	<circle style="fill:#4ABC96;" cx="156" cy="393.1" r="1.5"/>
	<circle style="fill:#4ABC96;" cx="160.7" cy="393.1" r="1.5"/>
</g>
<circle style="fill:#348264;" cx="337.9" cy="393.1" r="7.5"/>
<g>
	<circle style="fill:#4ABC96;" cx="335.5" cy="393.1" r="1.5"/>
	<circle style="fill:#4ABC96;" cx="340.2" cy="393.1" r="1.5"/>
</g>
<path style="fill:#E2A379;" d="M287,282.1h-77.8c12.1,36.6,1,53.3,1,53.3l26.9,6.1h22l26.9-6.1C286,335.4,274.9,318.7,287,282.1z"/>
<path style="fill:#F4B382;" d="M248.1,61.6c-48.7,0-88.3,21.2-88.3,113.6c0,31.3,6.2,55.8,15.5,74.7c20.4,41.6,55.7,56.1,72.8,56.1
	s52.4-14.5,72.8-56.1c9.3-18.9,15.5-43.4,15.5-74.7C336.4,82.8,296.8,61.6,248.1,61.6z"/>
<g>
	<path style="fill:#3A1D12;" d="M248.1,59.1c-58,0-88.3,23.7-88.3,116.1l85.9-70l-8,36.9l56.5-35.3l42.1,68.4
		C336.4,82.8,306.1,59.1,248.1,59.1z"/>
	<path style="fill:#3A1D12;" d="M308,96.5c-17.6-5.5-39.6-37.9-39.6-37.9l8-36.9c0,0-67.5,52.8-78.7,56.5
		c14.8,19.9,37.7,26.5,68.4,26.5c17.3,0,32.1-2.1,44.4-7.5C309.7,97,308.8,96.8,308,96.5z"/>
	<path style="fill:#3A1D12;" d="M180.1,138.6l-14.6,2.2c-4.2,10.9-5.6,24.4-5.6,37.5c0,0,8.8-1.9,8.8,2.6l2.8,27.6l3.9-1.9
		C175,183.6,180.1,138.6,180.1,138.6z"/>
	<path style="fill:#3A1D12;" d="M330.8,140.8l-14.6-0.4c0,0,5.1,43.2,4.9,66.2l3.9,1.9l2.8-27.6c0-4.5,8.8-2.6,8.8-2.6
		C336.5,165.1,335.1,151.7,330.8,140.8z"/>
</g>
<path style="fill:#E5A173;" d="M259.5,254.8c-3.3-0.5-11.4,2.7-11.4,2.7s-8.3-3.1-11.6-2.7c-5.3,0.8-13.1,4.9-13.1,6.4
	c0,2.4,11,8.8,24.7,8.8s24.7-6.5,24.7-8.8C272.8,261.2,264.9,255.5,259.5,254.8z"/>
<path style="fill:#D89364;" d="M248.1,262.4c-14.6,0-24.7-1.2-24.7-1.2c0,2.4,11,11.5,24.7,11.5c13.7,0,24.7-9.1,24.7-11.5
	C272.8,261.2,262.7,262.4,248.1,262.4z"/>
<g>
	<path style="fill:#F4B382;" d="M161.4,178c-8.4,1.4-14.9,5.1-10.1,32.9s10.7,29.1,19.1,27.7L161.4,178z"/>
	<path style="fill:#F4B382;" d="M334.9,178l-9,60.6c8.4,1.4,14.3,0.1,19.1-27.7C349.7,183.1,343.3,179.5,334.9,178z"/>
</g>
<rect x="166.6" y="467.6" style="fill:#1C1C1A;" width="70" height="10"/>
<path style="fill:#D8D8D8;" d="M199.5,453.4l-9.1,3c0,0,1.2,4.7,2.8,11.2h8.4L199.5,453.4z"/>
<path style="fill:#6B6B6B;" d="M214.5,406.8c-3.2-7.1-11.2-10.3-18-7.3s-9.7,11.2-6.6,18.3c0,0,3.6,10.5,4.5,14.5s-1.6,7.1-3.3,8.6
	c-2.6,2.3-3.5,5.5-3.2,8s2.5,7.6,2.5,7.6l9.1-3c0,0-0.5-6.2-0.9-11.1c-0.3-3.8,0.7-10.8,1.9-12.8s4.1-3.1,5.4-3.7
	c0.7-0.2,1.3-0.4,1.9-0.7C214.7,422.1,217.7,413.9,214.5,406.8z M205.7,420.2c-4.2,1.9-9.1-0.1-11.1-4.5c-1.9-4.3-0.1-9.4,4-11.3
	c4.2-1.9,9.1,0.1,11.1,4.5S209.9,418.3,205.7,420.2z"/>
<g>
	<path style="fill:#C6C6C6;" d="M191.8,456l-1.4,0.5c0,0,1.2,4.7,2.8,11.2h1.9L191.8,456z"/>
	<path style="fill:#C6C6C6;" d="M198.8,453.7l-5.1,1.7l5.3-0.6C198.8,454.1,198.8,453.7,198.8,453.7z"/>
	<path style="fill:#C6C6C6;" d="M193.6,455.4l-1.9,0.2l0.1,0.4l0.9-0.3c0-0.1-0.1-0.2-0.1-0.2L193.6,455.4L193.6,455.4z"/>
	<polygon style="fill:#C6C6C6;" points="193.6,455.4 193.6,455.4 198.9,454.8 	"/>
	<path style="fill:#C6C6C6;" d="M192.7,455.7l-0.9,0.3l3.3,11.6h0.9C194.3,461.3,193,456.6,192.7,455.7z"/>
</g>
<g>
	<path style="fill:#B7B7B7;" d="M201.2,454.6l-2.3,0.2c0.3,2.1,1.1,6.8,2,12.8h2.6C202.2,460.1,201.2,454.6,201.2,454.6z"/>
	<path style="fill:#B7B7B7;" d="M192.7,455.5c0,0,0,0.1,0.1,0.2l0.9-0.3L192.7,455.5z"/>
	<path style="fill:#B7B7B7;" d="M198.9,454.8l-5.3,0.6l-0.9,0.3c0.3,1,1.5,5.6,3.2,11.9h4.9C200,461.6,199.3,456.9,198.9,454.8z"/>
</g>
<path style="fill:#6B6B6B;" d="M200.4,446.6c-0.8-2.3-2.9-4.9-6.2-6c-2.1-0.6-5.7-2.5-6.5-6.5s-1.8-15-1.8-15c0-7.7-6-14-13.5-14
	c-7.4,0-13.5,6.3-13.5,14s6,14,13.5,14c0.7,0,1.4-0.1,2.1-0.2c1.4,0,4.6-0.1,6.5,1.2c1.9,1.3,5.7,7.3,7,10.9
	c1.7,4.7,3.8,10.5,3.8,10.5l9.5-1C201.2,454.6,201.2,449,200.4,446.6z M172.4,427.8c-4.6,0-8.3-3.9-8.3-8.6c0-4.8,3.7-8.6,8.3-8.6
	s8.3,3.9,8.3,8.6C180.7,423.9,177,427.8,172.4,427.8z"/>
<circle style="fill:#C1C1C1;" cx="193.9" cy="450.7" r="2.5"/>
<path style="fill:#B2B1B1;" d="M195.7,448.9c-1-1-2.6-1-3.6,0l3.6,3.6C196.7,451.5,196.7,449.8,195.7,448.9z"/>
<g>
	<path style="fill:#141414;" d="M247.9,246.1c-2-2-5.2-2-7.1-0.1c-2,2-4.9,3.6-8.1,4.7c-3.2,1.1-6.7,1.8-10.3,2.1
		c-3.6,0.4-7.3,0.4-11,0.3s-7.4-0.5-11.1-1.1c3.5,1.4,7.1,2.5,10.8,3.5s7.4,1.7,11.3,2.2c3.9,0.5,7.8,0.6,11.9,0.2
		c4.1-0.4,8.4-1.5,12.4-3.9l0.3-0.2c0.3-0.2,0.7-0.4,0.9-0.7C249.8,251.3,249.8,248.1,247.9,246.1z"/>
	<path style="fill:#141414;" d="M284.9,253.2c-3.7,0.1-7.4,0.1-11-0.3s-7.1-1-10.3-2.1c-3.2-1.1-6.1-2.7-8.1-4.7
		c-2-2-5.2-1.9-7.1,0.1c-1.9,2-1.9,5.2,0.1,7.1c0.3,0.3,0.6,0.5,0.9,0.7l0.3,0.2c4,2.4,8.3,3.5,12.4,3.9s8.1,0.3,11.9-0.2
		c3.9-0.5,7.6-1.2,11.3-2.2c3.7-1,7.3-2.1,10.8-3.5C292.3,252.7,288.6,253,284.9,253.2z"/>
</g>
<g>
</g>
<g>
</g>
<g>
</g>
<g>
</g>
<g>
</g>
<g>
</g>
<g>
</g>
<g>
</g>
<g>
</g>
<g>
</g>
<g>
</g>
<g>
</g>
<g>
</g>
<g>
</g>
<g>
</g>
</svg>
